<?xml version="1.0" encoding="UTF-8" standalone="no"?>
<!-- Created with Inkscape (http://www.inkscape.org/) -->

<svg
   width="77.204979mm"
   height="79.315704mm"
   viewBox="0 0 77.204979 79.315704"
   version="1.1"
   id="svg1"
   xml:space="preserve"
   xmlns="http://www.w3.org/2000/svg"
   xmlns:svg="http://www.w3.org/2000/svg"><defs
     id="defs1"><rect
       x="671.85083"
       y="-421.81436"
       width="98.429245"
       height="89.396347"
       id="rect1223" /></defs><g
     id="layer1"
     transform="translate(552.97523,500.16542)"><g
       id="g1225"
       transform="matrix(0.78945077,0,0,0.78945077,-744.85459,-308.76321)"><g
         id="g1218"
         transform="translate(250.81676,-336.05285)"><path
           d="m 78.742325,148.22727 c 0,-0.65891 0.534004,-1.19319 1.192909,-1.19319 0.658903,0 1.193189,0.53428 1.193189,1.19319 0,0.65891 -0.534286,1.1932 -1.193189,1.1932 -0.658906,0 -1.192909,-0.53429 -1.192909,-1.1932 m -0.645015,0 c 0,1.01509 0.822838,1.83792 1.837924,1.83792 1.015088,0 1.837922,-0.82283 1.837922,-1.83792 0,-1.01509 -0.822834,-1.83793 -1.837922,-1.83793 -1.015086,0 -1.837896,0.82278 -1.837896,1.83793 m 3.319094,-1.9108 a 0.42951489,0.42951489 0 1 0 0.429686,-0.42934 h -1.72e-4 a 0.42971532,0.42971532 0 0 0 -0.429514,0.42934 m -2.92723,4.82429 c -0.348972,-0.0159 -0.53864,-0.0741 -0.66469,-0.12313 -0.167108,-0.065 -0.286346,-0.14255 -0.411704,-0.26773 -0.125363,-0.12519 -0.202964,-0.24431 -0.26773,-0.41142 -0.04914,-0.12599 -0.10727,-0.31572 -0.123128,-0.6647 -0.01733,-0.37728 -0.02082,-0.49061 -0.02082,-1.44645 0,-0.95584 0.0036,-1.06886 0.02082,-1.44647 0.01591,-0.34896 0.07445,-0.53832 0.123128,-0.66468 0.06506,-0.16711 0.142538,-0.28635 0.26773,-0.41171 0.125186,-0.12536 0.244305,-0.20296 0.411704,-0.26773 0.12599,-0.0492 0.315718,-0.10724 0.66469,-0.12313 0.377286,-0.0174 0.490621,-0.0209 1.446032,-0.0209 0.955414,0 1.068861,0.003 1.44646,0.0209 0.348972,0.0159 0.538328,0.0744 0.664691,0.12313 0.167109,0.0648 0.286346,0.14255 0.411702,0.26773 0.125365,0.12519 0.202674,0.2446 0.26773,0.41171 0.04914,0.12599 0.10727,0.31572 0.123129,0.66468 0.01733,0.37761 0.02082,0.49063 0.02082,1.44647 0,0.95584 -0.0036,1.06886 -0.02082,1.44645 -0.01591,0.34898 -0.07431,0.53865 -0.123129,0.6647 -0.06506,0.16711 -0.142537,0.28634 -0.26773,0.41141 -0.125184,0.12509 -0.244594,0.20268 -0.411702,0.26774 -0.12599,0.0491 -0.315719,0.10723 -0.664691,0.12313 -0.377286,0.0173 -0.490622,0.0209 -1.44646,0.0209 -0.955841,0 -1.068863,-0.003 -1.446032,-0.0209 m -0.02963,-6.47116 c -0.381035,0.0174 -0.641409,0.0778 -0.868794,0.16625 -0.235347,0.0914 -0.434838,0.21395 -0.634052,0.41285 -0.199208,0.19889 -0.321473,0.39842 -0.412846,0.63404 -0.08848,0.22754 -0.1489,0.48777 -0.16625,0.8688 -0.01762,0.38164 -0.0217,0.50365 -0.0217,1.47567 0,0.97202 0.0042,1.09403 0.0217,1.47567 0.01733,0.38107 0.07777,0.64127 0.16625,0.86879 0.09138,0.23535 0.213668,0.43525 0.412846,0.63405 0.199184,0.19881 0.398422,0.32122 0.634052,0.41285 0.227818,0.0885 0.487759,0.1489 0.868794,0.16626 0.381839,0.0173 0.503648,0.0217 1.475673,0.0217 0.972017,0 1.094027,-0.005 1.475666,-0.0217 0.381065,-0.0173 0.641265,-0.0778 0.868794,-0.16626 0.235346,-0.0916 0.434844,-0.21396 0.634051,-0.41285 0.199208,-0.1989 0.321221,-0.3987 0.412853,-0.63405 0.08848,-0.22752 0.149183,-0.48775 0.166249,-0.86879 0.01733,-0.38193 0.02141,-0.50365 0.02141,-1.47567 0,-0.97202 -0.0042,-1.09403 -0.02141,-1.47567 -0.01739,-0.38106 -0.07777,-0.6414 -0.166249,-0.8688 -0.09163,-0.23533 -0.213957,-0.43484 -0.412853,-0.63404 -0.198894,-0.19921 -0.398705,-0.32148 -0.633761,-0.41285 -0.227818,-0.0884 -0.488043,-0.14919 -0.868793,-0.16625 -0.381698,-0.0174 -0.503651,-0.0217 -1.475531,-0.0217 -0.971876,0 -1.094117,0.005 -1.475957,0.0217"
           fill="#ffffff"
           id="path1207"
           style="fill:#000000;stroke-width:0.00286343" /><path
           id="path1214"
           style="fill:none;stroke:#000000;stroke-width:0.656469;stroke-dasharray:none"
           d="m 73.22333,142.0948 c -2.491962,0 -4.520347,2.01937 -4.520347,4.50139 v 4.45938 c 0,2.48205 2.028385,4.502 4.520347,4.502 h 7.560727 l 5.497133,4.39605 v -4.5315 c 1.988166,-0.49354 3.423882,-2.2781 3.423882,-4.36655 v -4.45938 c 0,-2.48202 -2.027747,-4.50139 -4.519709,-4.50139 z" /></g><g
         id="g1219"
         transform="translate(206.53971,-306.15034)"><path
           d="m 107.07767,148.5 h -1.06383 c -0.63131,0 -1.33351,0.26551 -1.33351,1.18063 0.003,0.31886 0,0.62424 0,0.96792 h -0.73035 v 1.16219 h 0.75295 v 3.34576 h 1.38357 v -3.36784 h 0.91321 l 0.0826,-1.14337 h -1.01967 c 0,0 0.002,-0.50863 0,-0.65633 0,-0.36164 0.37629,-0.34092 0.39892,-0.34092 0.17907,0 0.52723,4.9e-4 0.61661,0 V 148.5 Z"
           fill="#ffffff"
           id="path1204"
           style="fill:none;stroke:#000000;stroke-width:0.545571;stroke-dasharray:none" /><path
           id="path1217"
           style="fill:none;stroke:#000000;stroke-width:0.656469;stroke-dasharray:none"
           d="m 99.019302,145.62835 c -2.491962,0 -4.520347,2.01937 -4.520347,4.50139 v 4.45938 c 0,2.48205 2.028385,4.502 4.520347,4.502 h 7.560728 l 5.49713,4.39605 v -4.5315 c 1.98817,-0.49354 3.42388,-2.2781 3.42388,-4.36655 v -4.45938 c 0,-2.48202 -2.02774,-4.50139 -4.5197,-4.50139 z" /></g><g
         id="g1220"
         transform="translate(233.46844,-342.38337)"><path
           fill="#ffffff"
           d="m 93.163108,173.50737 c -0.650267,-0.65079 -1.515039,-1.00939 -2.436413,-1.00976 -1.898398,0 -3.443474,1.54449 -3.444231,3.44291 -2.43e-4,0.60683 0.15835,1.19918 0.459747,1.72131 l -0.488623,1.78424 1.825832,-0.47879 c 0.50307,0.27428 1.069452,0.41884 1.645904,0.41907 h 0.0012 c 1.89821,0 3.443427,-1.54466 3.444196,-3.4431 3.6e-4,-0.91999 -0.357552,-1.78507 -1.00783,-2.43588 z m -2.436365,5.29748 h -0.0012 c -0.513679,-2e-4 -1.017506,-0.13816 -1.457028,-0.39889 l -0.104545,-0.062 -1.083478,0.28413 0.289202,-1.05604 -0.06809,-0.10828 c -0.286558,-0.45563 -0.437901,-0.98229 -0.437676,-1.523 5.91e-4,-1.57789 1.284832,-2.86161 2.863882,-2.86161 0.764613,2.9e-4 1.483383,0.29837 2.023869,0.83928 0.540485,0.54092 0.837972,1.25995 0.837688,2.02462 -5.91e-4,1.57801 -1.284821,2.86182 -2.862663,2.86182 z m 1.570243,-2.14332 c -0.08608,-0.043 -0.509166,-0.2512 -0.588054,-0.27991 -0.07888,-0.0288 -0.136246,-0.043 -0.193638,0.043 -0.05736,0.0861 -0.222282,0.27991 -0.272501,0.33732 -0.05021,0.0574 -0.100395,0.0646 -0.186452,0.0216 -0.08607,-0.043 -0.363353,-0.13391 -0.692065,-0.427 -0.255819,-0.2281 -0.428552,-0.50985 -0.478753,-0.596 -0.05021,-0.0861 -0.0053,-0.13268 0.03774,-0.17557 0.03867,-0.0386 0.08605,-0.10052 0.129084,-0.15072 0.04304,-0.0502 0.05736,-0.0861 0.08605,-0.14355 0.02868,-0.0574 0.01436,-0.1077 -0.0072,-0.15072 -0.02153,-0.043 -0.193625,-0.46652 -0.26534,-0.63877 -0.06985,-0.16776 -0.140811,-0.14506 -0.193638,-0.1477 -0.05015,-0.002 -0.107571,-0.003 -0.164937,-0.003 -0.05736,0 -0.150603,0.0216 -0.229487,0.1077 -0.07888,0.0861 -0.301194,0.29426 -0.301194,0.71772 0,0.42344 0.308362,0.83254 0.351395,0.88995 0.04306,0.0574 0.606838,0.92641 1.470133,1.29906 0.205327,0.0887 0.365623,0.14158 0.490615,0.18124 0.206156,0.0655 0.393761,0.0562 0.542059,0.0341 0.16534,-0.0247 0.509149,-0.20813 0.580881,-0.40908 0.07172,-0.20098 0.07172,-0.37322 0.05021,-0.4091 -0.02153,-0.0359 -0.07888,-0.0574 -0.164938,-0.10052 z"
           id="path1208"
           style="fill:#000000;stroke-width:0.00937937" /><path
           id="path1218"
           style="fill:none;stroke:#000000;stroke-width:0.656469;stroke-dasharray:none"
           d="m 84.052611,168.39861 c -2.491962,0 -4.520347,2.01937 -4.520347,4.50139 v 4.45938 c 0,2.48205 2.028385,4.502 4.520347,4.502 h 7.560728 l 5.49713,4.39605 v -4.5315 c 1.98817,-0.49354 3.423881,-2.2781 3.423881,-4.36655 V 172.9 c 0,-2.48202 -2.027741,-4.50139 -4.519701,-4.50139 z" /></g><g
         id="g1224"
         transform="matrix(0.53632849,0,0,0.53632849,141.2145,-59.113872)"><path
           style="fill:#000000"
           d="m 299.41171,-194.04449 c -26.78217,-4.21861 -47.06337,-20.24312 -47.55478,-37.5738 l -0.12787,-4.50951 0.7138,-0.8483 c 2.14647,-2.55092 3.70185,-0.68307 3.92227,4.71024 0.55406,13.55685 11.57236,23.88296 33.05232,30.9759 16.15627,5.33499 21.10676,3.55517 21.10676,-7.58839 v -3.76624 l 1.63258,-1.4774 c 0.89793,-0.81258 1.73137,-1.47741 1.85209,-1.47741 0.46573,0 0.15678,-0.58286 -1.63259,-3.07999 -2.85514,-3.98446 -2.54425,-4.85495 2.30578,-6.45616 1.42396,-0.4701 2.62186,-0.88128 2.66201,-0.91372 0.0401,-0.0324 -0.531,-1.83191 -1.26924,-3.99883 -2.41398,-7.0857 -2.43053,-7.06337 5.37012,-7.24713 3.5261,-0.0831 5.59859,-0.23075 5.56971,-0.39688 -0.0253,-0.14552 -1.61658,-4.43177 -3.53619,-9.525 -7.76894,-20.61301 -7.18341,-18.06581 -5.17925,-22.5309 1.54607,-3.4445 1.64259,-4.14263 1.52156,-11.00503 l -0.0362,-2.05052 h -5.02708 -5.02708 l -0.003,4.29947 -0.003,4.29948 -3.76773,7.53299 c -4.70182,9.40054 -0.86382,8.20114 -26.25813,8.20582 l -21.16819,0.004 -8.53129,8.53432 -8.53128,8.53431 v 9.02029 9.0203 l 1.07564,0.48504 c 7.70443,3.47422 5.04377,15.07519 -3.45689,15.07272 -8.65738,-0.003 -11.3424,-11.62558 -3.4863,-15.09169 l 1.10505,-0.48754 v -9.61952 c 0,-11.6582 -1.35135,-8.94202 10.1698,-20.44115 l 9.4107,-9.3927 5.22485,-0.1323 5.22485,-0.13229 0.0708,-6.37229 0.0707,-6.37229 -3.89745,-3.41729 c -4.68874,-4.11109 -4.25855,-2.71472 -4.27253,-13.86833 -0.016,-12.75141 -0.86739,-11.63228 8.85382,-11.63777 l 6.91075,-0.004 1.31884,1.05008 c 0.72536,0.57754 1.75115,1.57764 2.27952,2.22245 l 0.96068,1.17239 1.65764,-0.52393 c 7.93549,-2.50812 13.91189,7.29772 8.09863,13.28789 -5.84259,6.02039 -16.58169,-0.66289 -13.35542,-8.31151 0.23768,-0.56347 0.43215,-1.05495 0.43215,-1.09218 0,-0.0372 -0.738,-0.7966 -1.64,-1.68748 l -1.64,-1.61979 h -4.57771 -4.57771 v 7.65875 7.65875 l 3.77032,3.23753 c 2.07367,1.78064 3.82984,3.28502 3.9026,3.34307 0.0728,0.058 0.19182,3.51886 0.26458,7.69069 l 0.13229,7.58516 h 2.24896 2.24896 l 0.13229,-6.74687 c 0.12155,-6.19914 0.24835,-7.3654 0.86921,-7.99515 0.0313,-0.0317 4.28355,-0.12101 9.44954,-0.19844 l 9.39271,-0.14079 0.0737,-10.05416 c 0.085,-11.59472 0.15332,-10.98444 -1.30232,-11.62666 -5.91977,-2.6118 -5.93106,-11.88017 -0.0176,-14.49596 4.01893,-1.77776 8.81981,-0.0857 10.79037,3.803 l 0.65128,1.28524 h 3.69971 c 4.28575,0 4.13895,0.16979 2.34886,-2.71662 -10.25572,-16.53673 -26.64098,-24.62993 -51.10279,-25.24129 l -6.81302,-0.17028 v 7.78355 7.78355 l 3.9058,3.8993 3.90581,3.89929 h 5.95821 5.9582 l 1.53192,-1.54807 1.53193,-1.54808 -0.44842,-1.5425 c -2.39277,-8.23083 7.83326,-13.96747 13.61713,-7.63899 5.55422,6.0772 -0.63255,15.51915 -8.48573,12.95051 l -1.39305,-0.45565 -1.33309,1.42409 c -0.7332,0.78325 -1.72918,1.74641 -2.21328,2.14035 l -0.8802,0.71626 h -7.95397 -7.95397 l -4.88978,-4.82865 c -6.16588,-6.0888 -5.62001,-4.55329 -5.62001,-15.80885 0,-12.84538 -1.03428,-11.64203 10.00524,-11.64076 40.93381,0.005 65.00413,22.83193 65.00413,61.64701 v 8.33437 l -1.38906,2.96924 c -0.76399,1.63309 -1.38906,3.10071 -1.38906,3.26138 0,0.16068 2.22342,6.20639 4.94094,13.43493 6.87891,18.29776 6.74953,19.36049 -2.35713,19.36049 -4.60798,0 -4.31795,-0.47149 -2.69606,4.3828 1.63622,4.89715 1.50061,5.27969 -2.33632,6.59049 -2.87578,0.98244 -2.82057,0.82802 -1.13572,3.17635 2.37674,3.31268 2.31525,3.71444 -0.98992,6.4678 l -2.04038,1.69972 -0.006,3.19507 c -0.0199,9.83285 -5.8471,14.77746 -15.60395,13.2406 z m 2.56093,-75.02626 2.98369,-5.97864 0.1803,-5.61087 c 0.23498,-7.31226 -0.56539,-6.64122 7.92118,-6.64122 3.58956,0 6.49691,-0.10665 6.58017,-0.24137 0.58789,-0.95122 -1.4181,-10.60656 -3.20679,-15.43519 l -0.66158,-1.78594 h -4.94149 -4.94149 l -0.63591,1.33941 c -0.70984,1.49512 -2.52614,3.24331 -3.87732,3.7319 l -0.88832,0.32122 -0.0737,12.24553 -0.0737,12.24554 -0.60234,0.60247 c -0.59815,0.59828 -0.6662,0.60339 -9.78958,0.73476 l -9.18725,0.13229 -0.0723,4.88628 c -0.0398,2.68746 -0.0131,5.04051 0.0592,5.229 0.10485,0.27324 1.96761,0.32861 9.18753,0.2731 l 9.056,-0.0696 z m -83.32911,43.93642 c -7.26555,-1.80925 -8.36734,-11.541 -1.70626,-15.07087 l 1.24735,-0.661 v -9.56298 -9.56299 l -1.13632,-1.28538 c -0.62498,-0.70697 -2.17279,-2.51075 -3.43958,-4.00841 l -2.30326,-2.72302 v -12.81529 -12.81529 l -6.41615,-5.13728 c -3.52888,-2.8255 -6.65427,-5.4004 -6.94531,-5.722 -0.50747,-0.56075 -0.53224,-1.012 -0.60411,-11.00602 l -0.0749,-10.42129 -0.81919,-0.42362 -0.81918,-0.42361 1.65547,-1.67032 c 1.35842,-1.37061 1.85545,-1.70031 2.77,-1.83745 1.48158,-0.22218 2.77357,-1.52597 2.97103,-2.99818 0.15967,-1.19039 3.28632,-4.65491 3.74553,-4.15027 2.4293,2.66964 0.11586,9.4499 -3.77968,11.07757 l -0.9439,0.39438 v 9.48947 9.48947 l 4.56406,3.66164 4.56406,3.66163 0.1323,-12.80688 c 0.17926,-17.35396 -0.93242,-16.48342 11.77395,-9.22006 9.528,5.4465 8.91891,4.81618 9.07788,9.3943 l 0.11083,3.19152 1.17666,0.62422 c 7.40607,3.92891 4.72374,15.20058 -3.61849,15.20559 -8.50154,0.005 -11.17494,-11.84553 -3.45733,-15.32568 l 1.07608,-0.48525 -0.006,-2.40721 -0.006,-2.40722 -5.57385,-3.175 c -3.06561,-1.74624 -5.68211,-3.21468 -5.81443,-3.26319 -0.14333,-0.0525 -0.24059,10.13191 -0.24059,25.19352 v 25.28172 l 3.33531,3.90096 c 4.1299,4.83031 3.87817,4.11226 3.78599,10.79949 -0.0421,3.05594 -0.0543,7.5422 -0.0271,9.96946 l 0.0495,4.41321 1.22266,0.61062 c 8.29505,4.14276 3.4686,17.26687 -5.52625,15.02699 z m -23.67318,-16.80625 c -5.99791,-2.98889 -5.87157,-12.14025 0.20115,-14.57007 l 1.05271,-0.42121 v -7.87667 -7.87667 l -0.82915,-0.34345 c -8.93538,-3.70115 -4.49769,-17.59543 4.85658,-15.20583 7.62429,1.94767 8.63531,11.16863 1.65308,15.07671 l -1.05031,0.58787 -0.0701,7.70898 -0.0701,7.70898 1.33594,0.67697 c 5.97457,3.02755 5.94547,11.53417 -0.0498,14.57222 -1.84472,0.9348 -5.11339,0.9172 -7.0299,-0.0378 z m 33.24841,-4.50387 -0.64143,-0.68255 -0.0741,-11.59981 -0.0741,-11.59981 -1.39685,-0.78833 c -7.3974,-4.17484 -4.65237,-15.00915 3.79402,-14.97455 8.34126,0.0342 11.08512,10.85971 3.79529,14.97383 l -1.41404,0.79803 v 8.24145 8.24145 l 8.59896,-8.59591 8.59896,-8.5959 v -16.92531 -16.9253 l -4.47604,-4.50747 c -5.35845,-5.39608 -4.84065,-3.66357 -4.73463,-15.84162 l 0.0825,-9.48206 0.74236,-0.63825 c 0.94872,-0.81568 2.06447,-0.81568 3.0132,0 l 0.74236,0.63825 0.0777,9.34977 0.0777,9.34977 4.5525,4.56687 4.55249,4.56687 v 18.91741 18.9174 l -11.64789,11.63916 c -12.90508,12.89539 -12.58188,12.64547 -14.16901,10.95661 z"
           id="path1220" /><circle
           style="opacity:1;fill:#000000;fill-opacity:1;stroke:#000000;stroke-width:0.746722;stroke-linecap:square;stroke-dasharray:none;stroke-opacity:1;paint-order:fill markers stroke"
           id="path1222"
           cx="200.05209"
           cy="-330.28116"
           r="9.7956305" /><g
           id="g1223"
           transform="matrix(0.27996343,0,0,0.27996343,223.89702,-208.25007)"><path
             style="fill:#000000"
             d="m 197.31239,-48.14208 c -6.76822,-2.41903 -7.39622,-11.893606 -0.99591,-15.024989 l 1.43711,-0.703113 v -6.715826 -6.715826 h -2.91041 -2.91042 l -0.005,1.389062 c -0.0216,6.52227 -4.53704,12.293743 -10.64528,13.606339 l -2.09261,0.449679 -0.7545,1.494656 c -3.81104,7.549621 -15.4014,4.884392 -15.4014,-3.541587 0,-8.906448 11.5039,-11.567356 15.54363,-3.595319 0.76397,1.507612 0.88872,1.518284 3.64229,0.311574 3.02346,-1.324988 5.0227,-4.385811 5.38071,-8.23786 l 0.16862,-1.814349 -5.39291,-0.12549 c -11.38331,-0.264883 -16.15868,-4.430451 -16.6098,-14.488788 l -0.1602,-3.571875 -6.87917,0.0017 -6.87916,0.0017 -1.77926,0.841182 c -4.508,2.131248 -5.72851,4.83368 -5.5483,12.284877 l 0.0808,3.339853 1.10985,0.496606 c 8.84659,3.958449 4.03571,17.744304 -5.3529,15.339052 -7.47241,-1.914342 -8.51513,-12.696934 -1.48738,-15.380853 l 1.14714,-0.4381 0.12116,-4.935705 c 0.29962,-12.205622 4.76791,-15.885312 19.31568,-15.906683 l 6.28385,-0.0092 v -4.894787 -4.8948 h -8.03874 -8.03874 l -0.70584,1.44267 c -3.82834,7.82485 -15.36355,5.15244 -15.36355,-3.55933 0,-8.6652 11.55453,-11.34471 15.36202,-3.56247 l 0.70737,1.4458 h 8.03874 8.03874 v -5.68854 -5.68854 h -6.95587 c -16.1095,0 -18.70871,-3.23198 -18.70871,-23.2632 v -11.00771 l -1.32274,-0.628 c -7.86561,-3.73434 -5.15425,-15.48602 3.5717,-15.48058 8.66923,0.005 11.2424,11.71974 3.4102,15.52492 l -1.16125,0.56418 -0.0377,7.28946 c -0.088,17.04138 -0.1036,16.91206 2.36276,19.64202 2.49702,2.76391 3.91737,3.12557 12.27501,3.12557 h 6.56656 v -2.16591 c 0,-8.7202 5.48848,-14.03033 14.91334,-14.42871 l 3.66855,-0.15507 -0.11354,-5.05276 c -0.1519,-6.75963 -1.41736,-9.27981 -5.58972,-11.13195 -2.68009,-1.18971 -2.94549,-1.14339 -3.91954,0.68413 -4.07689,7.64902 -15.38945,4.88535 -15.40333,-3.76305 -0.0139,-8.66829 12.30522,-11.28086 15.60246,-3.30888 l 0.48325,1.16839 1.93041,0.31141 c 7.4707,1.20515 11.17016,6.64612 11.17838,16.4406 l 0.004,4.65965 2.41424,0.13766 c 1.32783,0.0757 3.41142,0.0754 4.6302,-6e-4 l 2.21597,-0.13825 -6.3e-4,-6.64343 -6.2e-4,-6.64344 -1.46583,-0.76593 c -7.61006,-3.97643 -4.85577,-15.36423 3.71604,-15.36423 8.59932,0 11.35053,11.37504 3.71605,15.36423 l -1.46583,0.76593 -6.3e-4,6.68073 -6.3e-4,6.68073 h 2.91042 2.91041 l 0.002,-1.12448 c 0.0127,-7.13794 4.89146,-13.02032 11.69571,-14.10162 1.07056,-0.17012 1.17705,-0.26893 1.88713,-1.75108 3.65486,-7.62872 15.39286,-4.74019 15.33804,3.77445 -0.0552,8.56456 -11.34543,11.29948 -15.38201,3.72607 l -0.84181,-1.57938 -1.1137,0.25024 c -3.9727,0.8926 -6.78433,4.35074 -7.23212,8.89508 l -0.18158,1.84279 5.38865,0.12315 c 11.3451,0.25928 16.15531,4.45866 16.60553,14.49687 l 0.1602,3.57187 h 6.74688 c 11.94348,0 14.54379,-2.30265 14.55008,-12.88451 l 0.002,-3.35952 -1.38906,-0.69372 c -7.84042,-3.91566 -5.29934,-15.5074 3.41455,-15.57632 8.8269,-0.0698 11.35706,12.77552 3.10422,15.75978 l -0.89638,0.32414 -0.004,4.24632 c -0.0115,12.4736 -4.70284,16.53475 -19.11223,16.54486 l -6.54844,0.005 v 4.89479 4.89479 h 8.03874 8.03875 l 0.70736,-1.4458 c 3.75073,-7.66623 15.04036,-5.22078 15.45127,3.3469 0.41845,8.7249 -11.59515,11.65966 -15.4528,3.7749 l -0.70583,-1.44267 h -8.03875 -8.03874 v 5.68855 5.688537 h 6.71076 c 16.35251,0 18.95382,3.192749 18.95382,23.263193 v 11.007714 l 1.32274,0.627996 c 8.00803,3.801959 4.85246,16.181967 -3.96857,15.56959 -8.38947,-0.582418 -10.57759,-12.005118 -2.99025,-15.610105 l 1.27046,-0.603636 v -11.378885 -11.378885 l -0.85988,-1.746027 c -2.24452,-4.557626 -4.20865,-5.361309 -13.36147,-5.467257 l -7.07761,-0.08193 v 2.341442 c 0,8.646515 -5.46584,13.882613 -14.91058,14.283858 l -3.66578,0.155736 0.10323,4.920575 c 0.14239,6.787196 1.42073,9.395449 5.50855,11.23931 2.67745,1.207696 3.22785,1.180541 3.78291,-0.186634 3.29247,-8.109673 15.67019,-5.527564 15.6302,3.260608 -0.04,8.782124 -12.2864,11.366712 -15.6239,3.297394 -0.45452,-1.098915 -0.51528,-1.140451 -1.92618,-1.316732 -7.71297,-0.963672 -11.64034,-6.56001 -11.6487,-16.598891 l -0.004,-4.696354 h -4.63021 -4.63021 v 6.715826 6.715826 l 1.4458,0.707364 c 8.97382,4.390484 3.0255,18.38412 -6.38492,15.020738 z m 27.16412,-34.420484 c 5.62457,-2.978614 5.54696,-2.571209 5.55212,-29.145656 0.005,-23.75839 0.0407,-23.23517 -1.78833,-25.89883 -2.80726,-4.0882 -2.10161,-3.98853 -28.23775,-3.98853 -25.95026,0 -25.25994,-0.091 -28.03934,3.69532 -1.96962,2.68317 -1.84946,1.11468 -1.9333,25.23504 -0.0938,26.975374 -0.0508,27.231405 5.01047,29.832311 1.91586,0.984538 1.99659,0.987526 25.49134,0.943502 l 22.75416,-0.04264 z"
             id="path1223" /><text
             xml:space="preserve"
             transform="matrix(3.3617225,0,0,3.3617225,-2081.3888,1275.5822)"
             id="text1223"
             style="font-size:16px;font-family:Roboto;-inkscape-font-specification:Roboto;white-space:pre;shape-inside:url(#rect1223);opacity:1;fill:#000000;fill-opacity:1;stroke:none;stroke-width:2.062;stroke-linecap:square;stroke-dasharray:none;stroke-opacity:1;paint-order:fill markers stroke"><tspan
               x="671.85156"
               y="-407.10212"
               id="tspan2">AI</tspan></text></g></g></g></g><style
     type="text/css"
     id="style1">
	.st0{fill:#539373;}
</style><style
     type="text/css"
     id="style1-8">
	.st0{fill:#539373;}
</style></svg>
