<?xml version="1.0" encoding="UTF-8" standalone="no"?>
<!-- Created with Inkscape (http://www.inkscape.org/) -->

<svg
   width="108.97489mm"
   height="79.453613mm"
   viewBox="0 0 108.97489 79.453613"
   version="1.1"
   id="svg1"
   xml:space="preserve"
   xmlns="http://www.w3.org/2000/svg"
   xmlns:svg="http://www.w3.org/2000/svg"><defs
     id="defs1"><clipPath
       clipPathUnits="userSpaceOnUse"
       id="clipPath1229"><rect
         style="opacity:1;fill:#000000;fill-opacity:1;stroke:#000000;stroke-width:0.337344;stroke-linecap:square;stroke-linejoin:round;stroke-dasharray:none;stroke-opacity:1;paint-order:fill markers stroke"
         id="rect1230"
         width="92.890091"
         height="100.27063"
         x="22.586639"
         y="-208.52896"
         ry="3.0081775" /></clipPath></defs><g
     id="layer1"
     transform="translate(57.4446,427.29927)"><g
       id="g1231"
       transform="matrix(0.85836918,0,0,0.85836918,-54.06151,-251.81984)"><g
         id="g1230"><polygon
           style="fill:none;stroke:#000000;stroke-width:7.27616;stroke-linejoin:round;stroke-dasharray:none"
           points="361.929,0 150.067,0 150.067,158.897 361.929,158.897 "
           id="polygon18"
           transform="matrix(0.16321359,0,0,0.16321359,-27.840489,-203.83974)" /><polygon
           style="fill:none;stroke:#000000;stroke-width:7.27616;stroke-linejoin:round;stroke-dasharray:none"
           points="335.447,300.134 335.447,397.238 300.136,511.996 211.86,511.996 176.55,397.238 176.55,300.134 "
           id="polygon19"
           transform="matrix(0.16321359,0,0,0.16321359,-27.840489,-203.83974)" /><path
           style="fill:#000000;stroke:#000000;stroke-width:1.18757;stroke-linejoin:round;stroke-dasharray:none"
           d="m 6.7379422,-154.85379 c 0,3.97947 3.2244477,7.20392 7.2039218,7.20392 3.979473,0 7.203921,-3.22445 7.203921,-7.20392 z"
           id="path19" /><polygon
           style="fill:none;stroke:#000000;stroke-width:7.27616;stroke-linejoin:round;stroke-dasharray:none"
           points="273.653,300.134 273.653,264.824 291.309,264.824 291.309,194.203 220.688,194.203 220.688,264.824 238.343,264.824 238.343,300.134 "
           id="polygon20"
           transform="matrix(0.16321359,0,0,0.16321359,-27.840489,-203.83974)" /><polygon
           style="fill:none;stroke:#000000;stroke-width:7.27616;stroke-linejoin:round;stroke-dasharray:none"
           points="238.343,300.134 238.343,264.824 220.688,264.824 220.688,203.031 185.378,203.031 185.378,300.134 "
           id="polygon21"
           transform="matrix(0.16321359,0,0,0.16321359,-27.840489,-203.83974)" /><polygon
           style="fill:none;stroke:#000000;stroke-width:7.27616;stroke-linejoin:round;stroke-dasharray:none"
           points="326.619,300.134 326.619,203.031 291.309,203.031 291.309,264.824 273.653,264.824 273.653,300.134 "
           id="polygon22"
           transform="matrix(0.16321359,0,0,0.16321359,-27.840489,-203.83974)" /><path
           style="fill:#000000;stroke:#000000;stroke-width:1.18757;stroke-linejoin:round;stroke-dasharray:none"
           d="M 9.6194781,-124.59726 H 4.965769 c -0.7968087,0 -1.4408496,-0.64404 -1.4408496,-1.44085 0,-0.79681 0.6440409,-1.44085 1.4408496,-1.44085 h 4.6537091 c 0.7968089,0 1.4408499,0.64404 1.4408499,1.44085 0,0.79681 -0.644041,1.44085 -1.4408499,1.44085"
           id="path22" /><path
           style="fill:#000000;stroke:#000000;stroke-width:1.18757;stroke-linejoin:round;stroke-dasharray:none"
           d="m 22.918774,-124.59726 h -4.653709 c -0.796809,0 -1.440849,-0.64404 -1.440849,-1.44085 0,-0.79681 0.64404,-1.44085 1.440849,-1.44085 h 4.653709 c 0.796809,0 1.44085,0.64404 1.44085,1.44085 0,0.79681 -0.644204,1.44085 -1.44085,1.44085"
           id="path23" /><path
           style="fill:#000000;stroke:#000000;stroke-width:1.18757;stroke-linejoin:round;stroke-dasharray:none"
           d="M 9.6194781,-130.36049 H 3.190658 c -0.7968087,0 -1.4408496,-0.64404 -1.4408496,-1.44085 0,-0.79681 0.6440409,-1.44085 1.4408496,-1.44085 h 6.4288201 c 0.7968089,0 1.4408499,0.64404 1.4408499,1.44085 0,0.79681 -0.644041,1.44085 -1.4408499,1.44085"
           id="path24" /><path
           style="fill:#000000;stroke:#000000;stroke-width:1.18757;stroke-linejoin:round;stroke-dasharray:none"
           d="m 24.692906,-130.36049 h -6.42882 c -0.796809,0 -1.44085,-0.64404 -1.44085,-1.44085 0,-0.79681 0.644041,-1.44085 1.44085,-1.44085 h 6.42882 c 0.796809,0 1.44085,0.64404 1.44085,1.44085 -1.64e-4,0.79681 -0.644204,1.44085 -1.44085,1.44085"
           id="path25" /><path
           style="fill:#000000;stroke:#000000;stroke-width:1.18757;stroke-linejoin:round;stroke-dasharray:none"
           d="M 9.6194781,-136.12356 H 1.4184849 c -0.79680879,0 -1.44084962,-0.64404 -1.44084962,-1.44085 0,-0.79681 0.64404083,-1.44085 1.44084962,-1.44085 h 8.2009932 c 0.7968089,0 1.4408499,0.64404 1.4408499,1.44085 0,0.79681 -0.644041,1.44085 -1.4408499,1.44085"
           id="path26" /><path
           style="fill:#000000;stroke:#000000;stroke-width:1.18757;stroke-linejoin:round;stroke-dasharray:none"
           d="m 26.465732,-136.12356 h -8.200993 c -0.796809,0 -1.44085,-0.64404 -1.44085,-1.44085 0,-0.79681 0.644041,-1.44085 1.44085,-1.44085 h 8.200993 c 0.796809,0 1.44085,0.64404 1.44085,1.44085 0,0.79681 -0.644041,1.44085 -1.44085,1.44085"
           id="path27" /><path
           style="fill:#000000;stroke:#000000;stroke-width:1.18757;stroke-linejoin:round;stroke-dasharray:none"
           d="M 9.6194781,-141.88664 H 0.97487031 c -0.79680874,0 -1.44084957,-0.64404 -1.44084957,-1.44085 0,-0.7968 0.64404083,-1.44085 1.44084957,-1.44085 H 9.6196413 c 0.7968087,0 1.4408497,0.64405 1.4408497,1.44085 -1.63e-4,0.79681 -0.644204,1.44085 -1.4410129,1.44085"
           id="path28" /><path
           style="fill:#000000;stroke:#000000;stroke-width:1.18757;stroke-linejoin:round;stroke-dasharray:none"
           d="m 26.90902,-141.88664 h -8.644771 c -0.796809,0 -1.440849,-0.64404 -1.440849,-1.44085 0,-0.7968 0.64404,-1.44085 1.440849,-1.44085 h 8.644771 c 0.796809,0 1.44085,0.64405 1.44085,1.44085 -1.64e-4,0.79681 -0.644204,1.44085 -1.44085,1.44085"
           id="path29" /><polygon
           style="fill:#1a1a1a;stroke:#000000;stroke-width:7.27616;stroke-linejoin:round;stroke-dasharray:none"
           points="176.55,97.1 176.55,26.479 335.447,26.479 335.447,97.1 308.964,97.1 308.964,114.755 282.481,114.755 282.481,132.41 229.515,132.41 229.515,114.755 203.033,114.755 203.033,97.1 "
           id="polygon29"
           transform="matrix(0.16321359,0,0,0.16321359,-27.840489,-203.83974)" /><path
           style="fill:#ffffff;stroke:#000000;stroke-width:1.18757;stroke-linejoin:round;stroke-dasharray:none"
           d="m 22.586635,-195.19562 c 0.796808,0 1.440849,-0.64404 1.440849,-1.44085 v -2.88154 h -2.881536 v 2.88154 c -1.63e-4,0.79681 0.643878,1.44085 1.440687,1.44085"
           id="path30" /><path
           style="fill:#ffffff;stroke:#000000;stroke-width:1.18757;stroke-linejoin:round;stroke-dasharray:none"
           d="m 18.264249,-195.19562 c 0.796809,0 1.44085,-0.64404 1.44085,-1.44085 v -2.88154 h -2.881536 v 2.88154 c -1.63e-4,0.79681 0.643877,1.44085 1.440686,1.44085"
           id="path31" /><path
           style="fill:#ffffff;stroke:#000000;stroke-width:1.18757;stroke-linejoin:round;stroke-dasharray:none"
           d="m 13.941864,-195.19562 c 0.796808,0 1.440849,-0.64404 1.440849,-1.44085 v -2.88154 h -2.881536 v 2.88154 c 0,0.79681 0.644041,1.44085 1.440687,1.44085"
           id="path32" /><path
           style="fill:#ffffff;stroke:#000000;stroke-width:1.18757;stroke-linejoin:round;stroke-dasharray:none"
           d="m 9.6194781,-195.19562 c 0.7968089,0 1.4408499,-0.64404 1.4408499,-1.44085 v -2.88154 H 8.1787917 v 2.88154 c 0,0.79681 0.6440409,1.44085 1.4406864,1.44085"
           id="path33" /><path
           style="fill:#ffffff;stroke:#000000;stroke-width:1.18757;stroke-linejoin:round;stroke-dasharray:none"
           d="m 5.2972558,-195.19562 c 0.7968088,0 1.4408496,-0.64404 1.4408496,-1.44085 v -2.88154 H 3.8565695 v 2.88154 c -1.633e-4,0.79681 0.6438776,1.44085 1.4406863,1.44085"
           id="path34" /></g><path
         style="fill:#000000"
         d="m -11.006214,-89.66619 c -0.097,-0.09701 -0.17639,-1.882951 -0.17639,-3.96875 v -3.792361 H 2.1637658 15.510146 l 1.53644,1.4029 c 0.84504,0.771595 2.01268,1.836364 2.59477,2.366154 2.48622,2.262863 4.101037,3.836595 4.101037,3.996695 0,0.227576 -34.521007,0.222968 -34.748607,-0.0046 z m 71.128816,-27.8686 c -33.903231,-3.62903 -48.832516,-44.87657 -25.003125,-69.08018 19.76532,-20.07572 53.07361,-14.84479 65.607033,10.30331 14.21822,28.52862 -9.013656,62.15831 -40.603908,58.77687 z m -10.980208,-15.311 c 0,-10.38062 0.183019,-10.88359 3.960252,-10.88359 1.285327,0 1.32501,-0.2288 0.559086,-3.22353 -1.418417,-5.54596 -6.046805,-11.92047 -7.943161,-10.93983 -4.751277,2.45698 -8.99379,-4.36646 -4.734691,-7.61503 3.253384,-2.48148 8.188265,0.62975 7.122313,4.4903 -0.262391,0.95031 -0.247122,0.97772 1.518606,2.72602 3.607012,3.57142 6.649446,9.89179 6.659491,13.83446 0.0017,0.67218 0.08248,0.72761 1.060187,0.72761 h 1.058333 l -0.0048,-1.25678 c -0.01831,-4.74861 -2.042311,-13.01788 -4.678891,-19.11614 -1.215076,-2.8104 -1.688575,-3.73468 -3.548172,-6.92614 l -1.029461,-1.76677 -1.431204,0.14771 c -4.445029,0.45877 -7.000536,-4.0203 -4.195632,-7.35374 3.14462,-3.73717 9.08287,-0.32304 7.605821,4.37288 l -0.436924,1.3891 0.904222,1.43046 c 4.972536,7.86646 8.931755,20.09729 8.931755,27.59202 v 1.4874 h 1.322917 1.322917 v -19.42705 -19.42705 l -1.116483,-0.61589 c -4.071365,-2.24589 -2.443021,-8.43286 2.214802,-8.41524 4.519814,0.0171 6.125645,6.51164 2.071996,8.37988 l -1.039997,0.47931 -0.0068,19.51302 -0.0068,19.51302 h 1.279499 1.279498 l 0.05643,-1.65365 c 0.277457,-8.13015 3.619014,-18.65296 8.509582,-26.79731 l 1.275984,-2.12492 -0.424001,-1.28792 c -1.284169,-3.90073 2.861512,-7.38774 6.386671,-5.37195 4.307807,2.46332 2.607984,8.24505 -2.433277,8.27648 l -2.021877,0.0126 -0.893783,1.44261 c -4.42153,7.13654 -8.25223,19.21353 -8.25223,26.01666 v 1.4874 h 1.317876 c 1.462597,0 1.293872,0.24671 1.870162,-2.73459 0.842992,-4.36103 2.987687,-8.4459 6.072379,-11.56571 l 1.984375,-2.00696 -0.235444,-1.10401 c -0.944784,-4.43013 5.194667,-7.20446 7.94974,-3.59237 2.858337,3.74747 -1.410508,9.0119 -5.55486,6.85036 -2.261079,-1.17929 -8.377144,8.52913 -8.377144,13.29758 v 0.78771 l 2.053628,0.11888 c 4.027266,0.23313 4.031789,0.24481 4.031789,10.4126 0,5.76722 0.08417,8.05734 0.296118,8.05734 0.977366,0 5.750879,-3.41193 8.599016,-6.14625 23.562313,-22.62076 8.252603,-62.8025 -24.343904,-63.89281 -31.907653,-1.06726 -50.321322,34.97377 -30.714385,60.11718 3.419512,4.3851 11.635991,10.84608 13.950133,10.96962 0.109141,0.006 0.198438,-3.90241 0.198438,-8.68498 z"
         id="path1229"
         clip-path="url(#clipPath1229)"
         transform="matrix(0.96963809,0.4159027,-0.4159027,0.96963809,-48.055084,-34.80785)" /></g></g><style
     type="text/css"
     id="style1">
	.st0{fill:#539373;}
</style><style
     type="text/css"
     id="style1-8">
	.st0{fill:#539373;}
</style></svg>
