<?xml version="1.0" encoding="UTF-8" standalone="no"?>
<!-- Created with Inkscape (http://www.inkscape.org/) -->

<svg
   width="83.224014mm"
   height="67.153786mm"
   viewBox="0 0 83.224014 67.153786"
   version="1.1"
   id="svg1"
   xml:space="preserve"
   xmlns="http://www.w3.org/2000/svg"
   xmlns:svg="http://www.w3.org/2000/svg"><defs
     id="defs1" /><style
     type="text/css"
     id="style1">
	.st0{fill:#539373;}
</style><style
     type="text/css"
     id="style1-8">
	.st0{fill:#539373;}
</style><g
     id="g1246"
     transform="matrix(0.67986844,0,0,0.67986844,192.59923,241.66518)"><path
       d="m -160.87778,-335.33203 -0.86398,32.77611 a 2.6759017,2.6759017 0 0 1 -2.73813,2.59754 l -16.41669,-0.43276 a 2.6759017,2.6759017 0 0 1 -2.59748,-2.73814 l 0.86396,-32.77617 a 2.6759017,2.6759017 0 0 1 2.73814,-2.59749 l 16.41667,0.43272 a 2.6759017,2.6759017 0 0 1 2.59751,2.73819 z m -2.7836,4.32205 -16.41665,-0.43278 -0.64334,24.40591 16.41666,0.43271 z m -12.55932,-3.71109 a 1.3343766,1.3343766 0 0 0 1.29875,1.3691 l 6.217,0.16385 a 1.3343795,1.3343795 0 0 0 0.0703,-2.66783 l -6.21696,-0.16387 a 1.3343766,1.3343766 0 0 0 -1.36909,1.29875 z m 4.95158,31.25852 a 1.329611,1.329611 0 1 0 -1.36654,1.29409 1.329611,1.329611 0 0 0 1.36654,-1.29409 z"
       id="path1243"
       style="stroke-width:2.38282" /><g
       id="g1245"><rect
         style="fill:none;fill-opacity:1;stroke:#000000;stroke-width:1.81306;stroke-linecap:square;stroke-linejoin:round;stroke-dasharray:none;stroke-opacity:1;paint-order:fill markers stroke"
         id="rect1232"
         width="87.700409"
         height="71.177361"
         x="-282.38242"
         y="-354.55222"
         ry="5.6231461" /><path
         style="fill:none;fill-opacity:1;stroke:#000000;stroke-width:1.81306;stroke-linecap:square;stroke-linejoin:round;stroke-dasharray:none;stroke-opacity:1;paint-order:fill markers stroke"
         d="m -282.38243,-301.32832 c 87.70044,0 87.70044,0 87.70044,0"
         id="path1232" /><rect
         style="fill:none;fill-opacity:1;stroke:#000000;stroke-width:1.81306;stroke-linecap:square;stroke-linejoin:round;stroke-dasharray:none;stroke-opacity:1;paint-order:fill markers stroke"
         id="rect1233"
         width="24.312523"
         height="21.567354"
         x="-250.68848"
         y="-283.37485"
         ry="0" /><rect
         style="fill:none;fill-opacity:1;stroke:#000000;stroke-width:1.81306;stroke-linecap:square;stroke-linejoin:round;stroke-dasharray:none;stroke-opacity:1;paint-order:fill markers stroke"
         id="rect1234"
         width="32.536449"
         height="4.2168999"
         x="-254.80043"
         y="-261.8075" /><circle
         style="fill:none;fill-opacity:1;stroke:#000000;stroke-width:1.90947;stroke-linecap:square;stroke-linejoin:round;stroke-dasharray:none;stroke-opacity:1;paint-order:fill markers stroke"
         id="circle1234"
         cx="-238.53221"
         cy="-292.35159"
         r="2.6455212" /><g
         id="g1240"
         transform="matrix(1.0045976,0,0,1.0045976,-613.03838,-238.67417)"><path
           style="fill:none;stroke:#000000;stroke-width:1.05833;stroke-dasharray:none"
           d="m 367.94714,-83.422934 0.38944,-0.03136 1.03845,0.17009 1.44342,0.603939 v 1.011688 l -1.44342,0.603938 -1.03845,0.17009 -0.38944,-0.03136 -0.20518,1.55829 0.38432,0.07051 0.95904,0.43306 1.23791,0.956945 -0.26183,0.97721 -1.55055,0.209781 -1.04709,-0.104475 -0.36804,-0.131087 -0.60149,1.452094 0.35292,0.167563 0.81431,0.666523 0.94804,1.244764 -0.5058,0.876094 -1.55205,-0.198624 -0.9843,-0.371979 -0.32161,-0.221877 -0.95686,1.24698 0.2976,0.253191 0.61401,0.854519 0.5936,1.447703 -0.71541,0.715415 -1.44771,-0.593605 -0.85451,-0.614004 -0.2532,-0.2976 -1.24698,0.956853 0.22188,0.321609 0.37198,0.984304 0.19862,1.552052 -0.87609,0.505794 -1.24476,-0.948038 -0.66653,-0.814307 -0.16756,-0.352922 -1.45209,0.601496 0.13108,0.368033 0.10448,1.047098 -0.20978,1.550541 -0.97721,0.261837 -0.95695,-1.237914 -0.43306,-0.959035 -0.0705,-0.38432 -1.55828,0.205172 0.0314,0.38944 -0.17009,1.038451 -0.60394,1.443422 h -1.01168 l -0.60394,-1.443422 -0.17009,-1.038451 0.0314,-0.38944 -1.55828,-0.205172 -0.0705,0.38432 -0.43306,0.959035 -0.95695,1.237914 -0.97721,-0.261837 -0.20978,-1.550541 0.10448,-1.047098 0.13108,-0.368033 -1.45209,-0.601496 -0.16756,0.352922 -0.66653,0.814307 -1.24476,0.948038 -0.87609,-0.505794 0.19862,-1.552052 0.37198,-0.984304 0.22188,-0.321609 -1.24698,-0.956853 -0.2532,0.2976 -0.85451,0.614004 -1.44771,0.593605 -0.71541,-0.715415 0.5936,-1.447703 0.61401,-0.854519 0.2976,-0.253191 -0.95686,-1.24698 -0.32161,0.221877 -0.9843,0.371979 -1.55205,0.198624 -0.5058,-0.876094 0.94804,-1.244764 0.81431,-0.666523 0.35292,-0.167563 -0.60149,-1.452094 -0.36804,0.131087 -1.04709,0.104475 -1.55055,-0.209781 -0.26183,-0.97721 1.23791,-0.956945 0.95904,-0.43306 0.38432,-0.07051 -0.20518,-1.55829 -0.38944,0.03136 -1.03845,-0.17009 -1.44342,-0.603938 v -1.011688 l 1.44342,-0.603939 1.03845,-0.17009 0.38944,0.03136 0.20518,-1.55829 -0.38432,-0.07051 -0.95904,-0.43306 -1.23791,-0.956945 0.26183,-0.97721 1.55055,-0.209781 1.04709,0.104475 0.36804,0.131087 0.60149,-1.452094 -0.35292,-0.167563 -0.81431,-0.666522 -0.94804,-1.244765 0.5058,-0.876094 1.55205,0.198624 0.9843,0.371979 0.32161,0.221878 0.95686,-1.246981 -0.2976,-0.253191 -0.61401,-0.854519 -0.5936,-1.447703 0.71541,-0.715415 1.44771,0.593605 0.85451,0.614004 0.2532,0.2976 1.24698,-0.956853 -0.22188,-0.321609 -0.37198,-0.984304 -0.19862,-1.552056 0.87609,-0.505794 1.24476,0.948038 0.66653,0.814311 0.16756,0.352922 1.45209,-0.601495 -0.13108,-0.368038 -0.10448,-1.047098 0.20978,-1.550541 0.97721,-0.261838 0.95695,1.237915 0.43306,0.959035 0.0705,0.38432 1.55828,-0.205172 -0.0314,-0.38944 0.17009,-1.038451 0.60394,-1.443417 h 1.01168 l 0.60394,1.443417 0.17009,1.038451 -0.0314,0.38944 1.55828,0.205172 0.0705,-0.38432 0.43306,-0.959035 0.95695,-1.237915 0.97721,0.261838 0.20978,1.550541 -0.10448,1.047098 -0.13108,0.368038 1.45209,0.601495 0.16756,-0.352922 0.66653,-0.814311 1.24476,-0.948038 0.87609,0.505794 -0.19862,1.552056 -0.37198,0.984304 -0.22188,0.321609 1.24698,0.956853 0.2532,-0.2976 0.85451,-0.614004 1.44771,-0.593605 0.71541,0.715415 -0.5936,1.447703 -0.61401,0.854519 -0.2976,0.253191 0.95686,1.246981 0.32161,-0.221878 0.9843,-0.371979 1.55205,-0.198624 0.5058,0.876094 -0.94804,1.244765 -0.81431,0.666522 -0.35292,0.167563 0.60149,1.452094 0.36804,-0.131087 1.04709,-0.104475 1.55055,0.209781 0.26183,0.97721 -1.23791,0.956945 -0.95904,0.43306 -0.38432,0.07051 z"
           id="path1239" /><circle
           style="fill:none;stroke:#000000;stroke-width:0.802178"
           id="path1240"
           cx="352.44299"
           cy="-82.174423"
           r="8.0217628" /></g><path
         style="fill:none;stroke:#000000;stroke-width:1.04067;stroke-dasharray:none"
         d="m -209.09191,-330.3698 2.25466,-0.48352 0.75348,0.0237 3.25036,1.5495 v 1.64408 l -3.25036,1.5495 -0.75348,0.0237 -2.25466,-0.48352 -1.25918,3.03991 1.9362,1.25239 0.51603,0.54956 1.20268,3.39399 -1.16256,1.16256 -3.39399,-1.20268 -0.54956,-0.51603 -1.25239,-1.9362 -3.03991,1.25918 0.48352,2.25466 -0.0237,0.75348 -1.5495,3.25036 h -1.64408 l -1.5495,-3.25036 -0.0237,-0.75348 0.48352,-2.25466 -3.03991,-1.25918 -1.25239,1.9362 -0.54956,0.51603 -3.39399,1.20268 -1.16256,-1.16256 1.20268,-3.39399 0.51603,-0.54956 1.9362,-1.25239 -1.25918,-3.03991 -2.25466,0.48352 -0.75348,-0.0237 -3.25036,-1.5495 v -1.64408 l 3.25036,-1.5495 0.75348,-0.0237 2.25466,0.48352 1.25918,-3.03991 -1.9362,-1.25239 -0.51603,-0.54956 -1.20268,-3.39399 1.16256,-1.16256 3.39399,1.20268 0.54956,0.51603 1.25239,1.9362 3.03991,-1.25918 -0.48352,-2.25466 0.0237,-0.75348 1.5495,-3.25036 h 1.64408 l 1.5495,3.25036 0.0237,0.75348 -0.48352,2.25466 3.03991,1.25918 1.25239,-1.9362 0.54956,-0.51603 3.39399,-1.20268 1.16256,1.16256 -1.20268,3.39399 -0.51603,0.54956 -1.9362,1.25239 z"
         id="path1241" /><circle
         style="fill:none;stroke:#000000;stroke-width:1.04067;stroke-dasharray:none"
         id="path1242"
         cx="-218.00632"
         cy="-328.45807"
         r="4.7736993" /></g></g></svg>
