<?xml version="1.0" encoding="UTF-8"?>
<svg xmlns="http://www.w3.org/2000/svg" xmlns:xlink="http://www.w3.org/1999/xlink" width="412pt" height="118.7pt" viewBox="0 0 412 118.7" version="1.1">
<defs>
<clipPath id="clip1">
  <path d="M 76 108 L 336 108 L 336 118.699219 L 76 118.699219 Z M 76 108 "/>
</clipPath>
</defs>
<g id="surface1">
<path style=" stroke:none;fill-rule:evenodd;fill:rgb(0%,21.556091%,54.492188%);fill-opacity:1;" d="M 0.160156 76.964844 L 3.925781 67.519531 C 7.929688 70.4375 11.882813 71.890625 15.769531 71.890625 C 21.75 71.890625 24.726563 69.730469 24.726563 65.417969 C 24.726563 63.386719 24.019531 61.464844 22.617188 59.625 C 21.214844 57.785156 18.304688 55.726563 13.910156 53.445313 C 9.519531 51.164063 6.554688 49.285156 5.035156 47.816406 C 3.511719 46.335938 2.335938 44.597656 1.507813 42.5625 C 0.695313 40.546875 0.28125 38.304688 0.28125 35.84375 C 0.28125 31.253906 1.910156 27.453125 5.152344 24.425781 C 8.398438 21.394531 12.5625 19.890625 17.648438 19.890625 C 24.273438 19.890625 29.132813 21.175781 32.242188 23.734375 L 29.144531 32.804688 C 25.582031 30.164063 21.800781 28.835938 17.851563 28.835938 C 15.5 28.835938 13.683594 29.484375 12.390625 30.757813 C 11.09375 32.042969 10.453125 33.714844 10.453125 35.761719 C 10.453125 39.164063 14.085938 42.703125 21.363281 46.378906 C 25.195313 48.316406 27.957031 50.113281 29.652344 51.746094 C 31.347656 53.375 32.644531 55.285156 33.523438 57.453125 C 34.417969 59.625 34.859375 62.058594 34.859375 64.726563 C 34.859375 69.539063 33.03125 73.492188 29.359375 76.589844 C 25.703125 79.699219 20.789063 81.25 14.632813 81.25 C 9.292969 81.25 4.472656 79.824219 0.160156 76.964844 Z M 0.160156 76.964844 "/>
<path style=" stroke:none;fill-rule:evenodd;fill:rgb(0%,21.556091%,54.492188%);fill-opacity:1;" d="M 85.542969 79.125 L 85.542969 20.214844 L 95.757813 20.214844 L 128.734375 60.816406 L 128.734375 20.167969 L 135.699219 20.167969 L 135.691406 79.007813 L 128.734375 79.125 L 92.265625 38.246094 L 92.265625 79.125 Z M 85.542969 79.125 "/>
<path style=" stroke:none;fill-rule:evenodd;fill:rgb(6.272888%,16.479492%,51.367188%);fill-opacity:1;" d="M 0 10.96875 L 0 0.339844 L 4.183594 0.339844 C 6.109375 0.339844 7.390625 0.882813 8.039063 1.972656 C 8.28125 2.386719 8.402344 2.835938 8.402344 3.328125 C 8.402344 4.160156 8.09375 4.808594 7.484375 5.277344 C 6.941406 5.699219 6.195313 5.941406 5.25 6.011719 L 8.394531 10.96875 L 5.984375 10.96875 L 2.792969 5.601563 C 2.984375 5.609375 3.144531 5.609375 3.269531 5.609375 C 4.214844 5.609375 4.964844 5.371094 5.535156 4.886719 C 5.976563 4.511719 6.195313 3.992188 6.195313 3.320313 C 6.195313 2.804688 6.066406 2.355469 5.8125 1.972656 C 5.539063 1.546875 5.152344 1.261719 4.640625 1.117188 C 4.261719 1.007813 3.6875 0.953125 2.917969 0.953125 C 2.660156 0.953125 2.394531 0.964844 2.128906 0.984375 L 2.128906 10.96875 Z M 13.484375 10.96875 L 13.484375 0.339844 L 20.425781 0.339844 L 20.425781 1.085938 L 15.613281 1.085938 L 15.613281 5.082031 L 20.148438 5.082031 L 20.148438 5.828125 L 15.613281 5.828125 L 15.613281 10.222656 L 20.523438 10.222656 L 20.523438 10.96875 Z M 25.730469 10.96875 L 25.730469 0.339844 L 30.121094 0.339844 C 31.101563 0.339844 31.949219 0.566406 32.667969 1.023438 C 33.632813 1.636719 34.113281 2.472656 34.113281 3.523438 C 34.113281 4.324219 33.824219 5.003906 33.246094 5.566406 C 32.5625 6.230469 31.273438 6.5625 29.382813 6.5625 L 27.863281 6.5625 L 27.863281 10.96875 Z M 27.863281 5.96875 L 28.890625 5.96875 C 29.59375 5.96875 30.207031 5.835938 30.734375 5.574219 C 31.511719 5.175781 31.90625 4.464844 31.90625 3.429688 C 31.90625 1.761719 30.949219 0.933594 29.042969 0.933594 L 27.863281 0.929688 Z M 39.429688 0.339844 L 41.5625 0.339844 L 41.5625 7.402344 C 41.5625 8.664063 42.003906 9.5 42.894531 9.910156 C 43.285156 10.097656 43.71875 10.191406 44.203125 10.191406 C 45.199219 10.191406 45.929688 9.855469 46.398438 9.1875 C 46.671875 8.796875 46.808594 8.203125 46.808594 7.402344 L 46.808594 0.339844 L 47.769531 0.339844 L 47.769531 7.402344 C 47.769531 8.144531 47.703125 8.703125 47.574219 9.070313 C 47.0625 10.511719 45.792969 11.234375 43.761719 11.234375 C 42.125 11.234375 40.917969 10.757813 40.136719 9.804688 C 39.667969 9.226563 39.429688 8.425781 39.429688 7.402344 Z M 53.714844 10.96875 L 53.714844 0.339844 L 58.207031 0.339844 C 59.726563 0.339844 60.820313 0.773438 61.476563 1.640625 C 61.804688 2.070313 61.96875 2.542969 61.96875 3.054688 C 61.96875 4.191406 61.265625 4.960938 59.851563 5.363281 C 60.429688 5.449219 60.90625 5.617188 61.289063 5.867188 C 62.085938 6.390625 62.484375 7.136719 62.484375 8.097656 C 62.484375 10.011719 61.09375 10.96875 58.308594 10.96875 Z M 55.847656 5.097656 L 56.898438 5.097656 C 57.714844 5.097656 58.332031 5.011719 58.75 4.839844 C 59.492188 4.539063 59.863281 3.964844 59.863281 3.121094 C 59.863281 1.707031 58.875 1 56.90625 1 L 55.847656 1 Z M 55.847656 10.308594 L 56.984375 10.308594 C 57.972656 10.308594 58.710938 10.214844 59.199219 10.027344 C 59.917969 9.75 60.277344 9.140625 60.277344 8.1875 C 60.277344 7.53125 60.066406 6.980469 59.644531 6.542969 C 59.222656 6.105469 58.652344 5.847656 57.933594 5.773438 C 57.832031 5.765625 57.492188 5.757813 56.914063 5.757813 L 55.847656 5.757813 Z M 67.703125 10.96875 L 67.703125 0.339844 L 69.832031 0.339844 L 69.832031 10.222656 L 74.621094 10.222656 L 74.621094 10.96875 Z M 79.175781 0.339844 L 81.304688 0.339844 L 81.304688 10.96875 L 79.175781 10.96875 Z M 97.261719 8.128906 L 97.960938 8.515625 C 97.582031 9.160156 97.117188 9.6875 96.566406 10.089844 C 95.53125 10.859375 94.316406 11.242188 92.925781 11.242188 C 91.769531 11.242188 90.707031 10.96875 89.734375 10.425781 C 88.742188 9.871094 88 9.121094 87.507813 8.171875 C 87.117188 7.429688 86.921875 6.617188 86.921875 5.726563 C 86.921875 3.960938 87.617188 2.542969 89.003906 1.46875 C 90.203125 0.539063 91.554688 0.0742188 93.0625 0.0742188 C 94.992188 0.0703125 96.535156 0.816406 97.695313 2.300781 L 96.976563 2.707031 C 96.074219 1.449219 94.902344 0.820313 93.460938 0.820313 C 92.535156 0.820313 91.707031 1.082031 90.972656 1.605469 C 89.777344 2.457031 89.179688 3.835938 89.179688 5.734375 C 89.179688 7.875 89.960938 9.324219 91.515625 10.085938 C 92.082031 10.359375 92.6875 10.496094 93.332031 10.496094 C 95.070313 10.496094 96.382813 9.707031 97.261719 8.128906 Z M 101.894531 10.96875 L 106.707031 -0.0351563 L 111.75 10.96875 L 109.511719 10.96875 L 108.246094 8.203125 L 104.082031 8.203125 L 102.863281 10.96875 Z M 104.417969 7.457031 L 107.921875 7.457031 L 106.121094 3.503906 Z M 119.976563 10.96875 L 119.976563 0.339844 L 124.46875 0.339844 C 125.988281 0.339844 127.078125 0.773438 127.738281 1.640625 C 128.0625 2.070313 128.230469 2.542969 128.230469 3.054688 C 128.230469 4.191406 127.523438 4.960938 126.113281 5.363281 C 126.691406 5.449219 127.167969 5.617188 127.546875 5.867188 C 128.34375 6.390625 128.746094 7.136719 128.746094 8.097656 C 128.746094 10.011719 127.355469 10.96875 124.570313 10.96875 Z M 122.105469 5.097656 L 123.15625 5.097656 C 123.976563 5.097656 124.59375 5.011719 125.011719 4.839844 C 125.75 4.539063 126.121094 3.964844 126.121094 3.121094 C 126.121094 1.707031 125.136719 1 123.167969 1 L 122.105469 1 Z M 122.105469 10.308594 L 123.246094 10.308594 C 124.234375 10.308594 124.972656 10.214844 125.460938 10.027344 C 126.179688 9.75 126.535156 9.140625 126.535156 8.1875 C 126.535156 7.53125 126.324219 6.980469 125.90625 6.542969 C 125.484375 6.105469 124.914063 5.847656 124.195313 5.773438 C 124.089844 5.765625 123.753906 5.757813 123.175781 5.757813 L 122.105469 5.757813 Z M 139.695313 0.0703125 C 140.84375 0.0664063 141.894531 0.351563 142.851563 0.921875 C 143.808594 1.492188 144.523438 2.261719 144.992188 3.226563 C 145.363281 3.984375 145.542969 4.8125 145.542969 5.707031 C 145.542969 7.300781 144.984375 8.621094 143.859375 9.667969 C 142.738281 10.710938 141.34375 11.234375 139.675781 11.234375 C 138.519531 11.234375 137.472656 10.976563 136.535156 10.457031 C 135.585938 9.925781 134.867188 9.1875 134.378906 8.238281 C 133.976563 7.453125 133.777344 6.601563 133.777344 5.691406 C 133.777344 4.617188 134.085938 3.621094 134.699219 2.6875 C 135.3125 1.753906 136.136719 1.058594 137.171875 0.59375 C 137.945313 0.25 138.785156 0.078125 139.695313 0.0703125 Z M 139.710938 0.820313 C 138.691406 0.808594 137.890625 1.164063 137.300781 1.886719 C 136.550781 2.804688 136.179688 4.066406 136.179688 5.675781 C 136.179688 7.136719 136.476563 8.296875 137.0625 9.140625 C 137.691406 10.046875 138.574219 10.496094 139.710938 10.496094 C 140.359375 10.496094 140.953125 10.316406 141.503906 9.953125 C 142.609375 9.21875 143.160156 7.777344 143.160156 5.625 C 143.160156 4.359375 142.929688 3.308594 142.472656 2.472656 C 141.875 1.378906 140.957031 0.832031 139.710938 0.820313 Z M 151.160156 10.96875 L 151.160156 0.339844 L 153.289063 0.339844 L 153.289063 10.222656 L 158.078125 10.222656 L 158.078125 10.96875 Z M 162.632813 0.339844 L 164.761719 0.339844 L 164.761719 10.96875 L 162.632813 10.96875 Z M 169.507813 0.339844 L 171.867188 0.339844 L 175.09375 7.503906 L 178.234375 0.339844 L 179.277344 0.339844 L 174.441406 11.421875 Z M 181.941406 10.96875 L 186.753906 -0.0351563 L 191.796875 10.96875 L 189.558594 10.96875 L 188.292969 8.203125 L 184.128906 8.203125 L 182.910156 10.96875 Z M 184.464844 7.457031 L 187.96875 7.457031 L 186.167969 3.503906 Z M 196.21875 10.96875 L 196.21875 0.339844 L 200.402344 0.339844 C 202.324219 0.339844 203.609375 0.882813 204.253906 1.972656 C 204.5 2.386719 204.621094 2.835938 204.621094 3.328125 C 204.621094 4.160156 204.3125 4.808594 203.703125 5.277344 C 203.160156 5.699219 202.414063 5.941406 201.46875 6.011719 L 204.613281 10.96875 L 202.203125 10.96875 L 199.011719 5.601563 C 199.203125 5.609375 199.363281 5.609375 199.484375 5.609375 C 200.429688 5.609375 201.183594 5.371094 201.75 4.886719 C 202.191406 4.511719 202.414063 3.992188 202.414063 3.320313 C 202.414063 2.804688 202.285156 2.355469 202.03125 1.972656 C 201.757813 1.546875 201.367188 1.261719 200.859375 1.117188 C 200.480469 1.007813 199.90625 0.953125 199.136719 0.953125 C 198.878906 0.953125 198.613281 0.964844 198.347656 0.984375 L 198.347656 10.96875 Z M 209.703125 0.339844 L 211.832031 0.339844 L 211.832031 10.96875 L 209.703125 10.96875 Z M 216.261719 10.96875 L 221.074219 -0.0351563 L 226.117188 10.96875 L 223.878906 10.96875 L 222.613281 8.203125 L 218.449219 8.203125 L 217.230469 10.96875 Z M 218.785156 7.457031 L 222.289063 7.457031 L 220.488281 3.503906 Z M 230.539063 10.96875 L 230.539063 0.339844 L 232.464844 0.339844 L 238.65625 7.714844 L 238.65625 0.339844 L 239.613281 0.339844 L 239.613281 10.96875 L 238.65625 10.96875 L 231.496094 2.441406 L 231.496094 10.96875 Z M 244.425781 10.96875 L 249.238281 -0.0351563 L 254.28125 10.96875 L 252.042969 10.96875 L 250.777344 8.203125 L 246.613281 8.203125 L 245.394531 10.96875 Z M 246.949219 7.457031 L 250.453125 7.457031 L 248.652344 3.503906 Z M 266.472656 10.96875 L 266.472656 0.339844 L 270.113281 0.339844 C 272.007813 0.339844 273.519531 0.8125 274.640625 1.753906 C 275.992188 2.898438 276.667969 4.292969 276.667969 5.945313 C 276.667969 7.027344 276.363281 7.984375 275.757813 8.820313 C 274.722656 10.253906 273.097656 10.96875 270.886719 10.96875 Z M 268.601563 10.214844 C 269.164063 10.253906 269.617188 10.277344 269.949219 10.277344 C 271.285156 10.277344 272.296875 10.003906 272.984375 9.457031 C 273.933594 8.699219 274.410156 7.496094 274.410156 5.851563 C 274.410156 4.507813 274.066406 3.386719 273.382813 2.496094 C 272.621094 1.511719 271.398438 1.015625 269.703125 1.015625 C 269.402344 1.015625 269.035156 1.027344 268.601563 1.046875 Z M 282.292969 10.96875 L 282.292969 0.339844 L 289.234375 0.339844 L 289.234375 1.085938 L 284.421875 1.085938 L 284.421875 5.082031 L 288.957031 5.082031 L 288.957031 5.828125 L 284.421875 5.828125 L 284.421875 10.222656 L 289.332031 10.222656 L 289.332031 10.96875 Z M 297.132813 0.339844 L 299.492188 0.339844 L 302.71875 7.503906 L 305.859375 0.339844 L 306.90625 0.339844 L 302.066406 11.421875 Z M 311.636719 10.96875 L 311.636719 0.339844 L 318.578125 0.339844 L 318.578125 1.085938 L 313.765625 1.085938 L 313.765625 5.082031 L 318.300781 5.082031 L 318.300781 5.828125 L 313.765625 5.828125 L 313.765625 10.222656 L 318.675781 10.222656 L 318.675781 10.96875 Z M 323.882813 10.96875 L 323.882813 0.339844 L 325.8125 0.339844 L 332 7.714844 L 332 0.339844 L 332.957031 0.339844 L 332.957031 10.96875 L 332 10.96875 L 324.84375 2.441406 L 324.84375 10.96875 Z M 338.914063 10.96875 L 338.914063 0.339844 L 345.855469 0.339844 L 345.855469 1.085938 L 341.042969 1.085938 L 341.042969 5.082031 L 345.582031 5.082031 L 345.582031 5.828125 L 341.042969 5.828125 L 341.042969 10.222656 L 345.953125 10.222656 L 345.953125 10.96875 Z M 350.039063 10.96875 L 356.667969 1.085938 L 350.703125 1.085938 L 350.703125 0.339844 L 359.75 0.339844 L 353.160156 10.222656 L 359.75 10.222656 L 359.75 10.96875 Z M 364.578125 0.339844 L 366.710938 0.339844 L 366.710938 7.402344 C 366.710938 8.664063 367.152344 9.5 368.042969 9.910156 C 368.433594 10.097656 368.867188 10.191406 369.347656 10.191406 C 370.347656 10.191406 371.078125 9.855469 371.546875 9.1875 C 371.820313 8.796875 371.957031 8.203125 371.957031 7.402344 L 371.957031 0.339844 L 372.917969 0.339844 L 372.917969 7.402344 C 372.917969 8.144531 372.851563 8.703125 372.722656 9.070313 C 372.214844 10.511719 370.941406 11.234375 368.910156 11.234375 C 367.277344 11.234375 366.066406 10.757813 365.285156 9.804688 C 364.816406 9.226563 364.578125 8.425781 364.578125 7.402344 Z M 378.863281 10.96875 L 378.863281 0.339844 L 385.808594 0.339844 L 385.808594 1.085938 L 380.996094 1.085938 L 380.996094 5.082031 L 385.527344 5.082031 L 385.527344 5.828125 L 380.996094 5.828125 L 380.996094 10.222656 L 385.902344 10.222656 L 385.902344 10.96875 Z M 391.113281 10.96875 L 391.113281 0.339844 L 393.242188 0.339844 L 393.242188 10.222656 L 398.03125 10.222656 L 398.03125 10.96875 Z M 402.144531 10.96875 L 406.957031 -0.0351563 L 412 10.96875 L 409.761719 10.96875 L 408.5 8.203125 L 404.332031 8.203125 L 403.113281 10.96875 Z M 404.667969 7.457031 L 408.171875 7.457031 L 406.371094 3.503906 Z M 404.667969 7.457031 "/>
<path style=" stroke:none;fill-rule:evenodd;fill:rgb(0%,21.556091%,54.492188%);fill-opacity:1;" d="M 44.648438 79.078125 L 44.648438 20.214844 L 76.253906 20.214844 L 76.253906 26.480469 L 56.296875 26.304688 L 56.296875 45.636719 L 74.988281 45.636719 L 74.988281 51.742188 L 56.828125 51.742188 L 56.828125 73.878906 L 76.691406 73.878906 L 76.691406 79.078125 Z M 44.648438 79.078125 "/>
<path style=" stroke:none;fill-rule:evenodd;fill:rgb(0%,21.556091%,54.492188%);fill-opacity:1;" d="M 0.179688 100.183594 L 0.710938 98.363281 C 1.277344 98.925781 1.835938 99.207031 2.386719 99.207031 C 3.234375 99.207031 3.652344 98.789063 3.652344 97.957031 C 3.652344 97.566406 3.554688 97.195313 3.355469 96.839844 C 3.15625 96.484375 2.746094 96.085938 2.125 95.648438 C 1.503906 95.207031 1.085938 94.84375 0.871094 94.5625 C 0.652344 94.277344 0.488281 93.941406 0.371094 93.546875 C 0.253906 93.160156 0.195313 92.726563 0.195313 92.25 C 0.195313 91.367188 0.429688 90.632813 0.886719 90.046875 C 1.34375 89.464844 1.933594 89.171875 2.652344 89.171875 C 3.589844 89.171875 4.277344 89.421875 4.71875 89.914063 L 4.28125 91.664063 C 3.773438 91.15625 3.242188 90.898438 2.679688 90.898438 C 2.347656 90.898438 2.09375 91.023438 1.910156 91.269531 C 1.726563 91.515625 1.636719 91.839844 1.636719 92.234375 C 1.636719 92.890625 2.148438 93.574219 3.179688 94.285156 C 3.71875 94.65625 4.109375 95.003906 4.351563 95.320313 C 4.589844 95.632813 4.773438 96.003906 4.898438 96.421875 C 5.023438 96.839844 5.085938 97.308594 5.085938 97.824219 C 5.085938 98.753906 4.828125 99.515625 4.308594 100.113281 C 3.792969 100.710938 3.097656 101.011719 2.226563 101.011719 C 1.472656 101.011719 0.789063 100.738281 0.179688 100.183594 Z M 7.796875 91.171875 L 7.796875 93.855469 L 10.472656 93.855469 L 10.472656 95.582031 L 7.796875 95.582031 L 7.796875 99.011719 L 11.46875 99.011719 L 11.46875 100.816406 L 6.359375 100.816406 L 6.359375 89.367188 L 11.53125 89.367188 L 11.53125 91.171875 Z M 17.371094 100.816406 L 15.210938 96.089844 C 14.992188 96.085938 14.6875 96.066406 14.296875 96.035156 L 14.296875 100.816406 L 12.800781 100.816406 L 12.800781 89.367188 C 12.882813 89.367188 13.195313 89.347656 13.738281 89.308594 C 14.28125 89.269531 14.714844 89.25 15.046875 89.25 C 17.105469 89.25 18.136719 90.375 18.136719 92.628906 C 18.136719 93.304688 17.992188 93.921875 17.707031 94.480469 C 17.425781 95.035156 17.066406 95.429688 16.636719 95.65625 L 19.03125 100.816406 Z M 14.296875 91.132813 L 14.296875 94.3125 C 14.5625 94.34375 14.765625 94.363281 14.90625 94.363281 C 15.503906 94.359375 15.945313 94.242188 16.222656 94 C 16.503906 93.761719 16.640625 93.296875 16.640625 92.605469 C 16.640625 92.039063 16.492188 91.644531 16.191406 91.425781 C 15.894531 91.199219 15.425781 91.089844 14.78125 91.089844 C 14.628906 91.089844 14.464844 91.101563 14.296875 91.132813 Z M 22.332031 100.972656 L 21.542969 100.972656 L 18.511719 89.367188 L 20.09375 89.367188 L 21.96875 97.101563 L 23.949219 89.367188 L 25.496094 89.367188 Z M 26.378906 89.367188 L 27.820313 89.367188 L 27.820313 100.816406 L 26.378906 100.816406 Z M 35.058594 89.976563 L 34.464844 91.65625 C 34.144531 91.203125 33.628906 90.980469 32.917969 90.980469 C 32.246094 90.976563 31.691406 91.375 31.257813 92.175781 C 30.828125 92.976563 30.609375 93.988281 30.609375 95.210938 C 30.609375 96.4375 30.8125 97.410156 31.210938 98.128906 C 31.613281 98.847656 32.144531 99.207031 32.8125 99.207031 C 33.578125 99.207031 34.171875 98.820313 34.605469 98.050781 L 35.273438 99.691406 C 34.6875 100.570313 33.828125 101.011719 32.695313 101.011719 C 31.566406 101.011719 30.683594 100.484375 30.058594 99.433594 C 29.429688 98.382813 29.117188 96.945313 29.117188 95.128906 C 29.117188 93.433594 29.464844 92.019531 30.160156 90.878906 C 30.855469 89.742188 31.746094 89.171875 32.828125 89.171875 C 33.757813 89.171875 34.503906 89.441406 35.058594 89.976563 Z M 36.464844 89.367188 L 37.902344 89.367188 L 37.902344 100.816406 L 36.464844 100.816406 Z M 39.203125 94.992188 C 39.203125 93.363281 39.519531 91.984375 40.152344 90.855469 C 40.785156 89.726563 41.628906 89.164063 42.6875 89.164063 C 43.851563 89.164063 44.742188 89.675781 45.359375 90.695313 C 45.972656 91.71875 46.28125 93.152344 46.28125 94.992188 C 46.28125 96.839844 45.960938 98.304688 45.316406 99.386719 C 44.671875 100.46875 43.757813 101.011719 42.574219 101.011719 C 41.488281 101.011719 40.652344 100.476563 40.074219 99.402344 C 39.492188 98.328125 39.203125 96.859375 39.203125 94.992188 Z M 40.695313 94.992188 C 40.695313 96.332031 40.855469 97.371094 41.175781 98.105469 C 41.496094 98.839844 41.964844 99.207031 42.574219 99.207031 C 43.292969 99.207031 43.84375 98.847656 44.222656 98.128906 C 44.601563 97.410156 44.789063 96.363281 44.789063 94.992188 C 44.789063 92.3125 44.085938 90.972656 42.6875 90.972656 C 42.042969 90.96875 41.550781 91.335938 41.210938 92.058594 C 40.867188 92.789063 40.695313 93.761719 40.695313 94.992188 Z M 56.285156 100.972656 L 52.351563 93.730469 L 52.351563 100.824219 L 50.96875 100.824219 L 50.96875 89.367188 L 51.660156 89.367188 L 55.488281 96.277344 L 55.488281 89.367188 L 56.871094 89.367188 L 56.871094 100.972656 Z M 63.257813 100.816406 L 62.667969 98.496094 L 59.890625 98.496094 L 59.324219 100.816406 L 57.730469 100.816406 L 60.957031 89.210938 L 61.589844 89.210938 L 64.847656 100.816406 Z M 61.273438 92.714844 L 60.300781 96.941406 L 62.246094 96.941406 Z M 71.257813 89.976563 L 70.664063 91.65625 C 70.34375 91.203125 69.828125 90.980469 69.117188 90.980469 C 68.441406 90.976563 67.890625 91.375 67.457031 92.175781 C 67.027344 92.976563 66.808594 93.988281 66.808594 95.210938 C 66.808594 96.4375 67.011719 97.410156 67.410156 98.128906 C 67.808594 98.847656 68.34375 99.207031 69.011719 99.207031 C 69.777344 99.207031 70.371094 98.820313 70.804688 98.050781 L 71.472656 99.691406 C 70.886719 100.570313 70.027344 101.011719 68.898438 101.011719 C 67.761719 101.011719 66.882813 100.484375 66.257813 99.433594 C 65.628906 98.382813 65.316406 96.945313 65.316406 95.128906 C 65.316406 93.433594 65.664063 92.019531 66.359375 90.878906 C 67.054688 89.742188 67.945313 89.171875 69.027344 89.171875 C 69.957031 89.171875 70.703125 89.441406 71.257813 89.976563 Z M 72.664063 89.367188 L 74.101563 89.367188 L 74.101563 100.816406 L 72.664063 100.816406 Z M 75.402344 94.992188 C 75.402344 93.363281 75.71875 91.984375 76.351563 90.855469 C 76.984375 89.726563 77.828125 89.164063 78.886719 89.164063 C 80.050781 89.164063 80.941406 89.675781 81.558594 90.695313 C 82.171875 91.71875 82.480469 93.152344 82.480469 94.992188 C 82.480469 96.839844 82.160156 98.304688 81.515625 99.386719 C 80.871094 100.46875 79.957031 101.011719 78.773438 101.011719 C 77.6875 101.011719 76.851563 100.476563 76.273438 99.402344 C 75.691406 98.328125 75.402344 96.859375 75.402344 94.992188 Z M 76.894531 94.992188 C 76.894531 96.332031 77.054688 97.371094 77.375 98.105469 C 77.695313 98.839844 78.164063 99.207031 78.773438 99.207031 C 79.496094 99.207031 80.042969 98.847656 80.421875 98.128906 C 80.796875 97.410156 80.988281 96.363281 80.988281 94.992188 C 80.988281 92.3125 80.285156 90.972656 78.886719 90.972656 C 78.242188 90.96875 77.75 91.335938 77.410156 92.058594 C 77.066406 92.789063 76.894531 93.761719 76.894531 94.992188 Z M 89.070313 100.972656 L 85.136719 93.730469 L 85.136719 100.824219 L 83.753906 100.824219 L 83.753906 89.367188 L 84.445313 89.367188 L 88.273438 96.277344 L 88.273438 89.367188 L 89.65625 89.367188 L 89.65625 100.972656 Z M 96.042969 100.816406 L 95.453125 98.496094 L 92.675781 98.496094 L 92.113281 100.816406 L 90.515625 100.816406 L 93.746094 89.210938 L 94.375 89.210938 L 97.632813 100.816406 Z M 94.058594 92.714844 L 93.085938 96.941406 L 95.03125 96.941406 Z M 98.488281 100.816406 L 98.488281 89.367188 L 99.929688 89.367188 L 99.929688 99.011719 L 103.589844 99.011719 L 103.589844 100.816406 Z M 107.769531 89.367188 L 109.210938 89.367188 L 109.210938 100.816406 L 107.769531 100.816406 Z M 116.210938 100.972656 L 112.28125 93.730469 L 112.28125 100.824219 L 110.894531 100.824219 L 110.894531 89.367188 L 111.589844 89.367188 L 115.414063 96.277344 L 115.414063 89.367188 L 116.796875 89.367188 L 116.796875 100.972656 Z M 121.753906 91.171875 L 121.753906 100.816406 L 120.316406 100.816406 L 120.316406 91.171875 L 117.738281 91.171875 L 117.738281 89.367188 L 124.449219 89.367188 L 124.449219 91.171875 Z M 126.828125 91.171875 L 126.828125 93.855469 L 129.503906 93.855469 L 129.503906 95.582031 L 126.828125 95.582031 L 126.828125 99.011719 L 130.5 99.011719 L 130.5 100.816406 L 125.386719 100.816406 L 125.386719 89.367188 L 130.5625 89.367188 L 130.5625 91.171875 Z M 137.816406 90.296875 L 137.214844 91.929688 C 137.042969 91.71875 136.785156 91.503906 136.429688 91.292969 C 136.078125 91.082031 135.769531 90.980469 135.519531 90.980469 C 134.722656 90.976563 134.09375 91.359375 133.632813 92.125 C 133.167969 92.886719 132.9375 93.90625 132.9375 95.191406 C 132.9375 96.410156 133.164063 97.382813 133.617188 98.113281 C 134.070313 98.84375 134.683594 99.207031 135.460938 99.207031 C 135.976563 99.207031 136.394531 99.007813 136.726563 98.613281 L 136.726563 96.363281 L 135.605469 96.363281 L 135.605469 94.628906 L 138.167969 94.628906 L 138.167969 99.753906 C 137.824219 100.148438 137.382813 100.460938 136.839844 100.679688 C 136.300781 100.902344 135.761719 101.011719 135.230469 101.011719 C 134.066406 101.011719 133.144531 100.476563 132.464844 99.398438 C 131.785156 98.320313 131.445313 96.902344 131.445313 95.136719 C 131.445313 93.367188 131.816406 91.933594 132.558594 90.828125 C 133.300781 89.722656 134.296875 89.171875 135.550781 89.171875 C 136.4375 89.171875 137.195313 89.546875 137.816406 90.296875 Z M 144.007813 100.816406 L 141.84375 96.089844 C 141.628906 96.085938 141.324219 96.066406 140.929688 96.035156 L 140.929688 100.816406 L 139.4375 100.816406 L 139.4375 89.367188 C 139.519531 89.367188 139.832031 89.347656 140.375 89.308594 C 140.914063 89.269531 141.351563 89.25 141.683594 89.25 C 143.742188 89.25 144.769531 90.375 144.769531 92.628906 C 144.769531 93.304688 144.628906 93.921875 144.34375 94.480469 C 144.0625 95.035156 143.703125 95.429688 143.273438 95.65625 L 145.664063 100.816406 Z M 140.929688 91.132813 L 140.929688 94.3125 C 141.195313 94.34375 141.402344 94.363281 141.539063 94.363281 C 142.140625 94.359375 142.582031 94.242188 142.859375 94 C 143.136719 93.761719 143.277344 93.296875 143.277344 92.605469 C 143.277344 92.039063 143.128906 91.644531 142.828125 91.425781 C 142.53125 91.199219 142.058594 91.089844 141.417969 91.089844 C 141.261719 91.089844 141.101563 91.101563 140.929688 91.132813 Z M 151.085938 100.816406 L 150.496094 98.496094 L 147.71875 98.496094 L 147.152344 100.816406 L 145.554688 100.816406 L 148.785156 89.210938 L 149.417969 89.210938 L 152.671875 100.816406 Z M 149.101563 92.714844 L 148.128906 96.941406 L 150.074219 96.941406 Z M 155.332031 100.816406 L 153.53125 100.816406 L 153.53125 89.375 C 154.679688 89.316406 155.398438 89.289063 155.695313 89.289063 C 156.875 89.289063 157.8125 89.777344 158.503906 90.753906 C 159.195313 91.730469 159.539063 93.027344 159.539063 94.644531 C 159.539063 98.761719 158.136719 100.816406 155.332031 100.816406 Z M 154.96875 91.148438 L 154.96875 98.964844 C 155.203125 98.996094 155.453125 99.011719 155.722656 99.011719 C 156.449219 99.011719 157.019531 98.640625 157.425781 97.894531 C 157.839844 97.148438 158.046875 96.105469 158.046875 94.765625 C 158.046875 92.316406 157.238281 91.09375 155.628906 91.09375 C 155.472656 91.09375 155.253906 91.113281 154.96875 91.148438 Z M 160.421875 94.992188 C 160.421875 93.363281 160.738281 91.984375 161.371094 90.855469 C 162.003906 89.726563 162.851563 89.164063 163.90625 89.164063 C 165.074219 89.164063 165.964844 89.675781 166.578125 90.695313 C 167.195313 91.71875 167.503906 93.152344 167.503906 94.992188 C 167.503906 96.839844 167.183594 98.304688 166.539063 99.386719 C 165.894531 100.46875 164.980469 101.011719 163.796875 101.011719 C 162.707031 101.011719 161.875 100.476563 161.292969 99.402344 C 160.714844 98.328125 160.421875 96.859375 160.421875 94.992188 Z M 161.914063 94.992188 C 161.914063 96.332031 162.078125 97.371094 162.398438 98.105469 C 162.71875 98.839844 163.183594 99.207031 163.796875 99.207031 C 164.515625 99.207031 165.066406 98.847656 165.441406 98.128906 C 165.820313 97.410156 166.007813 96.363281 166.007813 94.992188 C 166.007813 92.3125 165.308594 90.972656 163.90625 90.972656 C 163.265625 90.96875 162.773438 91.335938 162.429688 92.058594 C 162.085938 92.789063 161.914063 93.761719 161.914063 94.992188 Z M 173.988281 100.816406 L 172.1875 100.816406 L 172.1875 89.375 C 173.335938 89.316406 174.058594 89.289063 174.351563 89.289063 C 175.53125 89.289063 176.46875 89.777344 177.160156 90.753906 C 177.851563 91.730469 178.195313 93.027344 178.195313 94.644531 C 178.195313 98.761719 176.792969 100.816406 173.988281 100.816406 Z M 173.628906 91.148438 L 173.628906 98.964844 C 173.859375 98.996094 174.109375 99.011719 174.378906 99.011719 C 175.105469 99.011719 175.675781 98.640625 176.085938 97.894531 C 176.496094 97.148438 176.703125 96.105469 176.703125 94.765625 C 176.703125 92.316406 175.898438 91.09375 174.285156 91.09375 C 174.132813 91.09375 173.914063 91.113281 173.628906 91.148438 Z M 180.90625 91.171875 L 180.90625 93.855469 L 183.582031 93.855469 L 183.582031 95.582031 L 180.90625 95.582031 L 180.90625 99.011719 L 184.578125 99.011719 L 184.578125 100.816406 L 179.464844 100.816406 L 179.464844 89.367188 L 184.640625 89.367188 L 184.640625 91.171875 Z M 193.429688 100.816406 L 192.839844 98.496094 L 190.0625 98.496094 L 189.496094 100.816406 L 187.898438 100.816406 L 191.128906 89.210938 L 191.761719 89.210938 L 195.019531 100.816406 Z M 191.445313 92.714844 L 190.46875 96.941406 L 192.417969 96.941406 Z M 197.671875 100.816406 L 195.875 100.816406 L 195.875 89.375 C 197.023438 89.316406 197.742188 89.289063 198.039063 89.289063 C 199.21875 89.289063 200.15625 89.777344 200.84375 90.753906 C 201.535156 91.730469 201.882813 93.027344 201.882813 94.644531 C 201.882813 98.761719 200.480469 100.816406 197.671875 100.816406 Z M 197.3125 91.148438 L 197.3125 98.964844 C 197.546875 98.996094 197.796875 99.011719 198.066406 99.011719 C 198.792969 99.011719 199.359375 98.640625 199.769531 97.894531 C 200.183594 97.148438 200.386719 96.105469 200.386719 94.765625 C 200.386719 92.316406 199.582031 91.09375 197.972656 91.09375 C 197.816406 91.09375 197.597656 91.113281 197.3125 91.148438 Z M 210.707031 100.824219 L 209.316406 100.824219 L 208.476563 94.648438 L 206.84375 100.972656 L 206.328125 100.972656 L 204.699219 94.648438 L 203.824219 100.824219 L 202.433594 100.824219 L 204.066406 89.367188 L 204.828125 89.367188 L 206.582031 97.082031 L 208.296875 89.367188 L 209.054688 89.367188 Z M 211.621094 89.367188 L 213.0625 89.367188 L 213.0625 100.816406 L 211.621094 100.816406 Z M 220.0625 100.972656 L 216.128906 93.730469 L 216.128906 100.824219 L 214.746094 100.824219 L 214.746094 89.367188 L 215.441406 89.367188 L 219.265625 96.277344 L 219.265625 89.367188 L 220.648438 89.367188 L 220.648438 100.972656 Z M 222.335938 89.367188 L 223.777344 89.367188 L 223.777344 100.816406 L 222.335938 100.816406 Z M 225.074219 100.183594 L 225.605469 98.363281 C 226.171875 98.925781 226.730469 99.207031 227.28125 99.207031 C 228.128906 99.207031 228.546875 98.789063 228.546875 97.957031 C 228.546875 97.566406 228.449219 97.195313 228.25 96.839844 C 228.050781 96.484375 227.640625 96.085938 227.019531 95.648438 C 226.398438 95.207031 225.976563 94.84375 225.761719 94.5625 C 225.546875 94.277344 225.382813 93.941406 225.265625 93.546875 C 225.148438 93.160156 225.089844 92.726563 225.089844 92.25 C 225.089844 91.363281 225.320313 90.632813 225.78125 90.046875 C 226.238281 89.464844 226.828125 89.171875 227.546875 89.171875 C 228.484375 89.171875 229.171875 89.421875 229.609375 89.914063 L 229.175781 91.664063 C 228.667969 91.15625 228.132813 90.898438 227.574219 90.898438 C 227.242188 90.898438 226.988281 91.023438 226.804688 91.269531 C 226.621094 91.515625 226.53125 91.839844 226.53125 92.234375 C 226.53125 92.890625 227.042969 93.574219 228.070313 94.285156 C 228.613281 94.65625 229.003906 95.003906 229.246094 95.320313 C 229.484375 95.632813 229.667969 96.003906 229.792969 96.421875 C 229.917969 96.839844 229.980469 97.308594 229.980469 97.824219 C 229.980469 98.75 229.722656 99.515625 229.203125 100.113281 C 228.6875 100.710938 227.992188 101.011719 227.121094 101.011719 C 226.363281 101.011719 225.683594 100.738281 225.074219 100.183594 Z M 234.550781 91.171875 L 234.550781 100.816406 L 233.113281 100.816406 L 233.113281 91.171875 L 230.535156 91.171875 L 230.535156 89.367188 L 237.242188 89.367188 L 237.242188 91.171875 Z M 242.753906 100.816406 L 240.589844 96.089844 C 240.371094 96.085938 240.070313 96.066406 239.675781 96.035156 L 239.675781 100.816406 L 238.183594 100.816406 L 238.183594 89.367188 C 238.265625 89.367188 238.574219 89.347656 239.121094 89.308594 C 239.660156 89.269531 240.097656 89.25 240.429688 89.25 C 242.488281 89.25 243.515625 90.375 243.515625 92.628906 C 243.515625 93.304688 243.371094 93.921875 243.089844 94.480469 C 242.804688 95.035156 242.449219 95.429688 242.019531 95.65625 L 244.410156 100.816406 Z M 239.675781 91.132813 L 239.675781 94.3125 C 239.941406 94.34375 240.144531 94.363281 240.285156 94.363281 C 240.886719 94.359375 241.328125 94.242188 241.605469 94 C 241.882813 93.761719 242.023438 93.296875 242.023438 92.605469 C 242.023438 92.039063 241.875 91.644531 241.574219 91.425781 C 241.277344 91.199219 240.804688 91.089844 240.164063 91.089844 C 240.007813 91.089844 239.847656 91.101563 239.675781 91.132813 Z M 249.832031 100.816406 L 249.242188 98.496094 L 246.464844 98.496094 L 245.898438 100.816406 L 244.300781 100.816406 L 247.53125 89.210938 L 248.164063 89.210938 L 251.421875 100.816406 Z M 247.847656 92.710938 L 246.875 96.941406 L 248.820313 96.941406 Z M 257.832031 89.976563 L 257.238281 91.65625 C 256.917969 91.203125 256.402344 90.980469 255.691406 90.980469 C 255.015625 90.976563 254.464844 91.375 254.03125 92.175781 C 253.601563 92.976563 253.382813 93.988281 253.382813 95.210938 C 253.382813 96.4375 253.582031 97.410156 253.984375 98.128906 C 254.382813 98.847656 254.917969 99.207031 255.585938 99.207031 C 256.347656 99.207031 256.945313 98.820313 257.378906 98.050781 L 258.046875 99.691406 C 257.460938 100.570313 256.601563 101.011719 255.46875 101.011719 C 254.335938 101.011719 253.457031 100.484375 252.832031 99.433594 C 252.203125 98.382813 251.890625 96.945313 251.890625 95.128906 C 251.890625 93.433594 252.238281 92.019531 252.933594 90.878906 C 253.628906 89.742188 254.519531 89.171875 255.601563 89.171875 C 256.53125 89.171875 257.273438 89.441406 257.832031 89.976563 Z M 259.238281 89.367188 L 260.675781 89.367188 L 260.675781 100.816406 L 259.238281 100.816406 Z M 261.972656 94.992188 C 261.972656 93.363281 262.292969 91.984375 262.921875 90.855469 C 263.554688 89.726563 264.402344 89.164063 265.457031 89.164063 C 266.625 89.164063 267.515625 89.675781 268.128906 90.695313 C 268.746094 91.71875 269.054688 93.148438 269.054688 94.992188 C 269.054688 96.839844 268.734375 98.304688 268.089844 99.386719 C 267.445313 100.46875 266.53125 101.011719 265.347656 101.011719 C 264.261719 101.011719 263.425781 100.476563 262.847656 99.402344 C 262.265625 98.328125 261.972656 96.859375 261.972656 94.992188 Z M 263.46875 94.992188 C 263.46875 96.332031 263.628906 97.371094 263.949219 98.105469 C 264.269531 98.839844 264.734375 99.207031 265.347656 99.207031 C 266.066406 99.207031 266.617188 98.847656 266.992188 98.128906 C 267.371094 97.410156 267.558594 96.363281 267.558594 94.992188 C 267.5625 92.3125 266.859375 90.972656 265.457031 90.972656 C 264.816406 90.96875 264.324219 91.332031 263.980469 92.058594 C 263.640625 92.789063 263.46875 93.761719 263.46875 94.992188 Z M 267.046875 86.140625 L 265.796875 88.429688 L 264.746094 88.429688 L 265.679688 86.140625 Z M 275.644531 100.972656 L 271.710938 93.730469 L 271.710938 100.824219 L 270.328125 100.824219 L 270.328125 89.367188 L 271.019531 89.367188 L 274.847656 96.277344 L 274.847656 89.367188 L 276.230469 89.367188 L 276.230469 100.972656 Z M 285.40625 100.816406 L 284.816406 98.496094 L 282.039063 98.496094 L 281.472656 100.816406 L 279.875 100.816406 L 283.105469 89.210938 L 283.738281 89.210938 L 286.996094 100.816406 Z M 283.421875 92.710938 L 282.449219 96.941406 L 284.394531 96.941406 Z M 289.652344 100.816406 L 287.851563 100.816406 L 287.851563 89.375 C 289 89.316406 289.71875 89.289063 290.015625 89.289063 C 291.195313 89.289063 292.132813 89.777344 292.820313 90.753906 C 293.515625 91.730469 293.859375 93.027344 293.859375 94.644531 C 293.859375 98.761719 292.457031 100.816406 289.652344 100.816406 Z M 289.289063 91.148438 L 289.289063 98.964844 C 289.523438 98.996094 289.773438 99.011719 290.042969 99.011719 C 290.769531 99.011719 291.339844 98.640625 291.746094 97.894531 C 292.160156 97.148438 292.367188 96.105469 292.367188 94.765625 C 292.367188 92.316406 291.558594 91.09375 289.949219 91.09375 C 289.792969 91.09375 289.574219 91.113281 289.289063 91.148438 Z M 295.128906 89.367188 L 296.566406 89.367188 L 296.566406 97.128906 C 296.566406 97.742188 296.699219 98.242188 296.964844 98.628906 C 297.234375 99.011719 297.597656 99.207031 298.0625 99.207031 C 298.582031 99.207031 298.988281 99.019531 299.277344 98.640625 C 299.566406 98.261719 299.710938 97.746094 299.710938 97.089844 L 299.710938 89.367188 L 301.148438 89.367188 L 301.148438 97.246094 C 301.148438 98.421875 300.867188 99.34375 300.308594 100.011719 C 299.75 100.679688 299.003906 101.011719 298.074219 101.011719 C 297.132813 101.011719 296.40625 100.6875 295.894531 100.035156 C 295.386719 99.382813 295.128906 98.449219 295.128906 97.238281 Z M 307.535156 100.816406 L 306.945313 98.496094 L 304.167969 98.496094 L 303.601563 100.816406 L 302.007813 100.816406 L 305.234375 89.210938 L 305.867188 89.210938 L 309.125 100.816406 Z M 305.550781 92.710938 L 304.578125 96.941406 L 306.523438 96.941406 Z M 315.296875 100.972656 L 311.363281 93.730469 L 311.363281 100.824219 L 309.980469 100.824219 L 309.980469 89.367188 L 310.675781 89.367188 L 314.5 96.277344 L 314.5 89.367188 L 315.882813 89.367188 L 315.882813 100.972656 Z M 318.980469 91.171875 L 318.980469 93.855469 L 321.65625 93.855469 L 321.65625 95.582031 L 318.980469 95.582031 L 318.980469 99.011719 L 322.652344 99.011719 L 322.652344 100.816406 L 317.542969 100.816406 L 317.542969 89.367188 L 322.714844 89.367188 L 322.714844 91.171875 Z M 328.554688 100.816406 L 326.394531 96.089844 C 326.175781 96.085938 325.871094 96.066406 325.480469 96.035156 L 325.480469 100.816406 L 323.988281 100.816406 L 323.988281 89.367188 C 324.066406 89.367188 324.378906 89.347656 324.921875 89.308594 C 325.464844 89.269531 325.902344 89.25 326.234375 89.25 C 328.292969 89.25 329.320313 90.375 329.320313 92.628906 C 329.320313 93.304688 329.175781 93.921875 328.894531 94.480469 C 328.609375 95.035156 328.25 95.429688 327.820313 95.65625 L 330.214844 100.816406 Z M 325.480469 91.132813 L 325.480469 94.3125 C 325.746094 94.34375 325.949219 94.363281 326.089844 94.363281 C 326.691406 94.359375 327.128906 94.242188 327.40625 94 C 327.6875 93.761719 327.828125 93.296875 327.828125 92.605469 C 327.828125 92.039063 327.675781 91.644531 327.378906 91.425781 C 327.078125 91.199219 326.609375 91.089844 325.96875 91.089844 C 325.8125 91.089844 325.648438 91.101563 325.480469 91.132813 Z M 335.636719 100.816406 L 335.046875 98.496094 L 332.265625 98.496094 L 331.703125 100.816406 L 330.105469 100.816406 L 333.335938 89.210938 L 333.964844 89.210938 L 337.222656 100.816406 Z M 333.652344 92.710938 L 332.675781 96.941406 L 334.625 96.941406 Z M 344.035156 96.121094 L 344.035156 100.816406 L 342.597656 100.816406 L 342.597656 96.121094 L 339.867188 89.367188 L 341.390625 89.367188 L 343.3125 94.253906 L 345.234375 89.367188 L 346.757813 89.367188 Z M 353.917969 91.171875 L 353.917969 100.816406 L 352.480469 100.816406 L 352.480469 91.171875 L 349.902344 91.171875 L 349.902344 89.367188 L 356.609375 89.367188 L 356.609375 91.171875 Z M 362.121094 100.816406 L 359.957031 96.089844 C 359.742188 96.085938 359.4375 96.066406 359.042969 96.035156 L 359.046875 100.816406 L 357.550781 100.816406 L 357.550781 89.367188 C 357.632813 89.367188 357.945313 89.347656 358.488281 89.308594 C 359.03125 89.269531 359.464844 89.25 359.796875 89.25 C 361.855469 89.25 362.882813 90.375 362.882813 92.628906 C 362.882813 93.304688 362.742188 93.921875 362.457031 94.480469 C 362.175781 95.035156 361.816406 95.429688 361.386719 95.65625 L 363.78125 100.816406 Z M 359.046875 91.132813 L 359.046875 94.3125 C 359.308594 94.34375 359.515625 94.363281 359.652344 94.363281 C 360.253906 94.359375 360.695313 94.242188 360.972656 94 C 361.25 93.761719 361.390625 93.296875 361.390625 92.605469 C 361.390625 92.039063 361.242188 91.644531 360.941406 91.425781 C 360.644531 91.199219 360.171875 91.089844 359.53125 91.089844 C 359.375 91.089844 359.214844 91.101563 359.046875 91.132813 Z M 364.5 89.367188 L 365.9375 89.367188 L 365.9375 100.816406 L 364.5 100.816406 Z M 370.101563 100.816406 L 367.621094 100.816406 L 367.621094 89.375 C 368.714844 89.304688 369.480469 89.265625 369.917969 89.265625 C 370.761719 89.265625 371.417969 89.519531 371.890625 90.03125 C 372.367188 90.535156 372.601563 91.261719 372.601563 92.203125 C 372.601563 93.109375 372.261719 93.828125 371.585938 94.351563 C 372.589844 94.847656 373.09375 95.871094 373.09375 97.417969 C 373.09375 98.457031 372.816406 99.285156 372.261719 99.898438 C 371.703125 100.507813 370.984375 100.816406 370.101563 100.816406 Z M 369.0625 91 L 369.0625 93.746094 C 369.28125 93.761719 369.515625 93.773438 369.757813 93.773438 C 370.695313 93.773438 371.164063 93.277344 371.164063 92.285156 C 371.164063 91.402344 370.738281 90.964844 369.886719 90.964844 C 369.664063 90.960938 369.386719 90.976563 369.0625 91 Z M 369.0625 95.328125 L 369.0625 99.109375 C 369.351563 99.148438 369.589844 99.167969 369.769531 99.167969 C 370.410156 99.167969 370.878906 99.011719 371.167969 98.707031 C 371.457031 98.398438 371.601563 97.886719 371.601563 97.175781 C 371.601563 96.523438 371.46875 96.050781 371.199219 95.753906 C 370.925781 95.453125 370.457031 95.308594 369.785156 95.308594 C 369.648438 95.308594 369.40625 95.3125 369.0625 95.328125 Z M 374.363281 89.367188 L 375.804688 89.367188 L 375.804688 97.128906 C 375.804688 97.742188 375.933594 98.242188 376.203125 98.628906 C 376.46875 99.011719 376.832031 99.207031 377.296875 99.207031 C 377.820313 99.207031 378.222656 99.019531 378.511719 98.640625 C 378.800781 98.261719 378.945313 97.746094 378.945313 97.089844 L 378.945313 89.367188 L 380.382813 89.367188 L 380.382813 97.246094 C 380.382813 98.421875 380.105469 99.34375 379.546875 100.011719 C 378.988281 100.679688 378.242188 101.011719 377.308594 101.011719 C 376.367188 101.011719 375.644531 100.6875 375.132813 100.035156 C 374.621094 99.382813 374.363281 98.449219 374.363281 97.238281 Z M 385.339844 91.171875 L 385.339844 100.816406 L 383.902344 100.816406 L 383.902344 91.171875 L 381.324219 91.171875 L 381.324219 89.367188 L 388.03125 89.367188 L 388.03125 91.171875 Z M 392.628906 100.816406 L 392.039063 98.496094 L 389.261719 98.496094 L 388.699219 100.816406 L 387.101563 100.816406 L 390.332031 89.210938 L 390.960938 89.210938 L 394.21875 100.816406 Z M 390.644531 92.710938 L 389.671875 96.941406 L 391.617188 96.941406 Z M 399.644531 100.816406 L 397.484375 96.089844 C 397.265625 96.085938 396.960938 96.066406 396.570313 96.035156 L 396.570313 100.816406 L 395.074219 100.816406 L 395.074219 89.367188 C 395.15625 89.367188 395.46875 89.347656 396.011719 89.308594 C 396.554688 89.269531 396.988281 89.25 397.320313 89.25 C 399.378906 89.25 400.410156 90.375 400.410156 92.628906 C 400.410156 93.304688 400.265625 93.921875 399.980469 94.480469 C 399.699219 95.035156 399.339844 95.429688 398.910156 95.65625 L 401.304688 100.816406 Z M 396.570313 91.132813 L 396.570313 94.3125 C 396.835938 94.34375 397.039063 94.363281 397.179688 94.363281 C 397.777344 94.359375 398.21875 94.242188 398.496094 94 C 398.773438 93.761719 398.914063 93.296875 398.914063 92.605469 C 398.914063 92.039063 398.765625 91.644531 398.464844 91.425781 C 398.167969 91.199219 397.699219 91.089844 397.054688 91.089844 C 396.902344 91.089844 396.738281 91.101563 396.570313 91.132813 Z M 402.023438 89.367188 L 403.460938 89.367188 L 403.460938 100.816406 L 402.023438 100.816406 Z M 409.878906 100.816406 L 409.285156 98.496094 L 406.507813 98.496094 L 405.945313 100.816406 L 404.347656 100.816406 L 407.578125 89.210938 L 408.207031 89.210938 L 411.464844 100.816406 Z M 407.890625 92.710938 L 406.917969 96.941406 L 408.867188 96.941406 Z M 407.890625 92.710938 "/>
<path style=" stroke:none;fill-rule:evenodd;fill:rgb(100%,86.326599%,0%);fill-opacity:1;" d="M 143.445313 36.019531 L 410.058594 36.019531 L 410.058594 17.539063 L 143.445313 17.539063 Z M 143.445313 36.019531 "/>
<path style=" stroke:none;fill-rule:evenodd;fill:rgb(0%,21.556091%,54.492188%);fill-opacity:1;" d="M 143.523438 59.226563 L 410.621094 59.226563 L 410.621094 41.039063 L 143.523438 41.039063 Z M 143.523438 59.226563 "/>
<path style=" stroke:none;fill-rule:evenodd;fill:rgb(89.0625%,0%,8.616638%);fill-opacity:1;" d="M 143.449219 82.6875 L 410.644531 82.6875 L 410.644531 64.226563 L 143.449219 64.226563 Z M 143.449219 82.6875 "/>
<path style=" stroke:none;fill-rule:evenodd;fill:rgb(100%,100%,100%);fill-opacity:1;" d="M 313.699219 58.097656 L 311.628906 57.015625 L 309.957031 58.65625 L 310.34375 56.347656 L 308.269531 55.269531 L 310.585938 54.921875 L 310.972656 52.617188 L 312.015625 54.710938 L 314.328125 54.367188 L 312.660156 56.003906 Z M 313.699219 58.097656 "/>
<path style=" stroke:none;fill-rule:evenodd;fill:rgb(100%,100%,100%);fill-opacity:1;" d="M 321.527344 53.285156 L 319.675781 51.855469 L 317.746094 53.175781 L 318.53125 50.972656 L 316.679688 49.542969 L 319.015625 49.613281 L 319.804688 47.410156 L 320.460938 49.652344 L 322.800781 49.71875 L 320.871094 51.039063 Z M 321.527344 53.285156 "/>
<path style=" stroke:none;fill-rule:evenodd;fill:rgb(100%,100%,100%);fill-opacity:1;" d="M 330.078125 49.917969 L 328.503906 48.1875 L 326.375 49.148438 L 327.535156 47.117188 L 325.960938 45.386719 L 328.25 45.863281 L 329.414063 43.832031 L 329.667969 46.15625 L 331.957031 46.632813 L 329.824219 47.59375 Z M 330.078125 49.917969 "/>
<path style=" stroke:none;fill-rule:evenodd;fill:rgb(100%,100%,100%);fill-opacity:1;" d="M 339.085938 48.105469 L 337.84375 46.125 L 335.574219 46.699219 L 337.074219 44.902344 L 335.828125 42.921875 L 338 43.792969 L 339.5 41.996094 L 339.34375 44.328125 L 341.511719 45.203125 L 339.246094 45.773438 Z M 339.085938 48.105469 "/>
<path style=" stroke:none;fill-rule:evenodd;fill:rgb(100%,100%,100%);fill-opacity:1;" d="M 348.273438 47.90625 L 347.398438 45.734375 L 345.0625 45.898438 L 346.855469 44.394531 L 345.976563 42.226563 L 347.960938 43.464844 L 349.753906 41.960938 L 349.1875 44.230469 L 351.171875 45.46875 L 348.839844 45.632813 Z M 348.273438 47.90625 "/>
<path style=" stroke:none;fill-rule:evenodd;fill:rgb(100%,100%,100%);fill-opacity:1;" d="M 357.351563 49.316406 L 356.871094 47.027344 L 354.546875 46.78125 L 356.570313 45.613281 L 356.089844 43.324219 L 357.824219 44.894531 L 359.851563 43.726563 L 358.898438 45.863281 L 360.632813 47.429688 L 358.308594 47.183594 Z M 357.351563 49.316406 "/>
<path style=" stroke:none;fill-rule:evenodd;fill:rgb(100%,100%,100%);fill-opacity:1;" d="M 366.042969 52.300781 L 365.96875 49.964844 L 363.722656 49.3125 L 365.925781 48.519531 L 365.851563 46.183594 L 367.285156 48.03125 L 369.484375 47.238281 L 368.171875 49.171875 L 369.605469 51.023438 L 367.359375 50.367188 Z M 366.042969 52.300781 "/>
<path style=" stroke:none;fill-rule:evenodd;fill:rgb(100%,100%,100%);fill-opacity:1;" d="M 374.074219 56.769531 L 374.414063 54.453125 L 372.316406 53.417969 L 374.625 53.023438 L 374.960938 50.707031 L 376.046875 52.777344 L 378.351563 52.386719 L 376.71875 54.058594 L 377.804688 56.132813 L 375.710938 55.09375 Z M 374.074219 56.769531 "/>
<path style=" stroke:none;fill-rule:evenodd;fill:rgb(100%,100%,100%);fill-opacity:1;" d="M 149.351563 79.121094 L 162.304688 79.121094 L 162.304688 20.179688 L 149.351563 20.179688 Z M 149.351563 79.121094 "/>
<path style=" stroke:none;fill-rule:evenodd;fill:rgb(100%,100%,100%);fill-opacity:1;" d="M 170.671875 78.96875 L 195.042969 20.269531 L 201.011719 20.273438 L 223.910156 78.96875 L 209.652344 79.1875 L 203.679688 63.414063 L 184.660156 63.414063 L 178.9375 78.96875 Z M 186.910156 57.253906 L 202.328125 57.148438 L 196.523438 40.945313 L 193.265625 40.929688 Z M 186.910156 57.253906 "/>
<path style=" stroke:none;fill-rule:evenodd;fill:rgb(100%,100%,100%);fill-opacity:1;" d="M 232.148438 79.042969 L 231.996094 27.820313 L 216.707031 27.894531 L 216.707031 20.125 L 259.609375 20.125 L 259.609375 27.746094 L 244.054688 27.746094 L 244.054688 79.042969 Z M 232.148438 79.042969 "/>
<g clip-path="url(#clip1)" clip-rule="nonzero">
<path style=" stroke:none;fill-rule:evenodd;fill:rgb(0%,21.556091%,54.492188%);fill-opacity:1;" d="M 85.28125 118.476563 L 83.808594 118.476563 L 82.921875 113.125 L 81.203125 118.605469 L 80.660156 118.605469 L 78.9375 113.125 L 78.015625 118.476563 L 76.554688 118.476563 L 78.273438 108.546875 L 79.078125 108.546875 L 80.929688 115.234375 L 82.738281 108.546875 L 83.535156 108.546875 Z M 86.242188 108.546875 L 87.761719 108.546875 L 87.761719 118.46875 L 86.242188 118.46875 Z M 95.148438 118.605469 L 91 112.328125 L 91 118.476563 L 89.539063 118.476563 L 89.539063 108.546875 L 90.269531 108.546875 L 94.308594 114.535156 L 94.308594 108.546875 L 95.765625 108.546875 L 95.765625 118.605469 Z M 97.542969 108.546875 L 99.0625 108.546875 L 99.0625 118.46875 L 97.542969 118.46875 Z M 100.433594 117.921875 L 100.992188 116.34375 C 101.589844 116.828125 102.179688 117.074219 102.761719 117.074219 C 103.652344 117.074219 104.097656 116.710938 104.097656 115.992188 C 104.097656 115.652344 103.992188 115.328125 103.78125 115.023438 C 103.574219 114.714844 103.136719 114.371094 102.484375 113.988281 C 101.828125 113.609375 101.386719 113.292969 101.160156 113.046875 C 100.933594 112.800781 100.757813 112.507813 100.632813 112.167969 C 100.511719 111.832031 100.449219 111.457031 100.449219 111.046875 C 100.449219 110.277344 100.691406 109.644531 101.175781 109.136719 C 101.660156 108.632813 102.28125 108.378906 103.042969 108.378906 C 104.027344 108.378906 104.753906 108.59375 105.21875 109.023438 L 104.753906 110.539063 C 104.222656 110.097656 103.660156 109.875 103.070313 109.875 C 102.71875 109.875 102.449219 109.984375 102.257813 110.195313 C 102.0625 110.410156 101.96875 110.691406 101.96875 111.03125 C 101.96875 111.601563 102.507813 112.191406 103.59375 112.808594 C 104.167969 113.132813 104.578125 113.433594 104.832031 113.703125 C 105.085938 113.976563 105.277344 114.296875 105.410156 114.660156 C 105.542969 115.023438 105.609375 115.429688 105.609375 115.875 C 105.609375 116.679688 105.335938 117.339844 104.789063 117.859375 C 104.242188 118.378906 103.507813 118.636719 102.589844 118.636719 C 101.792969 118.636719 101.074219 118.398438 100.433594 117.921875 Z M 110.425781 110.113281 L 110.425781 118.46875 L 108.910156 118.46875 L 108.910156 110.113281 L 106.191406 110.113281 L 106.191406 108.546875 L 113.265625 108.546875 L 113.265625 110.113281 Z M 115.777344 110.113281 L 115.777344 112.4375 L 118.601563 112.4375 L 118.601563 113.929688 L 115.777344 113.929688 L 115.777344 116.902344 L 119.648438 116.902344 L 119.648438 118.46875 L 114.257813 118.46875 L 114.257813 108.546875 L 119.714844 108.546875 L 119.714844 110.113281 Z M 125.875 118.46875 L 123.59375 114.371094 C 123.367188 114.367188 123.042969 114.351563 122.628906 114.324219 L 122.628906 118.46875 L 121.054688 118.46875 L 121.054688 108.546875 C 121.140625 108.546875 121.46875 108.53125 122.042969 108.496094 C 122.613281 108.460938 123.074219 108.445313 123.425781 108.445313 C 125.597656 108.445313 126.679688 109.421875 126.679688 111.371094 C 126.679688 111.960938 126.53125 112.492188 126.230469 112.976563 C 125.933594 113.460938 125.554688 113.800781 125.101563 114 L 127.625 118.46875 Z M 122.628906 110.078125 L 122.628906 112.832031 C 122.910156 112.859375 123.125 112.875 123.273438 112.875 C 123.90625 112.875 124.371094 112.769531 124.664063 112.5625 C 124.957031 112.355469 125.105469 111.953125 125.105469 111.351563 C 125.105469 110.863281 124.949219 110.523438 124.632813 110.332031 C 124.316406 110.136719 123.820313 110.039063 123.144531 110.039063 C 122.980469 110.039063 122.808594 110.050781 122.628906 110.078125 Z M 128.382813 108.546875 L 129.902344 108.546875 L 129.902344 118.46875 L 128.382813 118.46875 Z M 131.269531 113.421875 C 131.269531 112.011719 131.605469 110.816406 132.273438 109.835938 C 132.941406 108.859375 133.832031 108.371094 134.945313 108.371094 C 136.175781 108.371094 137.117188 108.8125 137.765625 109.699219 C 138.414063 110.585938 138.738281 111.824219 138.738281 113.421875 C 138.738281 115.023438 138.398438 116.292969 137.722656 117.230469 C 137.042969 118.167969 136.078125 118.636719 134.828125 118.636719 C 133.683594 118.636719 132.800781 118.171875 132.191406 117.242188 C 131.578125 116.3125 131.269531 115.039063 131.269531 113.421875 Z M 132.847656 113.421875 C 132.847656 114.582031 133.015625 115.480469 133.355469 116.117188 C 133.691406 116.753906 134.183594 117.074219 134.828125 117.074219 C 135.589844 117.074219 136.167969 116.761719 136.566406 116.136719 C 136.964844 115.515625 137.164063 114.609375 137.164063 113.421875 C 137.164063 111.101563 136.425781 109.9375 134.945313 109.9375 C 134.269531 109.9375 133.75 110.25 133.390625 110.878906 C 133.027344 111.511719 132.847656 112.355469 132.847656 113.421875 Z M 145.578125 118.46875 L 143.679688 118.46875 L 143.679688 108.554688 C 144.890625 108.503906 145.652344 108.480469 145.964844 108.480469 C 147.207031 108.480469 148.195313 108.902344 148.925781 109.75 C 149.652344 110.597656 150.019531 111.71875 150.019531 113.121094 C 150.019531 116.6875 148.539063 118.46875 145.578125 118.46875 Z M 145.199219 110.09375 L 145.199219 116.863281 C 145.445313 116.890625 145.707031 116.902344 145.992188 116.902344 C 146.757813 116.902344 147.359375 116.582031 147.792969 115.933594 C 148.226563 115.289063 148.441406 114.386719 148.441406 113.226563 C 148.441406 111.105469 147.59375 110.042969 145.894531 110.042969 C 145.730469 110.042969 145.5 110.058594 145.199219 110.09375 Z M 152.875 110.113281 L 152.875 112.4375 L 155.699219 112.4375 L 155.699219 113.929688 L 152.875 113.929688 L 152.875 116.902344 L 156.75 116.902344 L 156.75 118.46875 L 151.359375 118.46875 L 151.359375 108.546875 L 156.816406 108.546875 L 156.816406 110.113281 Z M 158.15625 118.46875 L 158.15625 108.546875 L 159.671875 108.546875 L 159.671875 116.902344 L 163.535156 116.902344 L 163.535156 118.46875 Z M 169.433594 114.820313 L 169.433594 118.46875 L 167.914063 118.46875 L 167.914063 108.554688 C 168.925781 108.503906 169.519531 108.480469 169.691406 108.480469 C 171.039063 108.480469 172.027344 108.722656 172.652344 109.203125 C 173.273438 109.683594 173.585938 110.433594 173.585938 111.453125 C 173.585938 113.726563 172.433594 114.863281 170.121094 114.863281 C 169.949219 114.863281 169.722656 114.851563 169.433594 114.820313 Z M 169.433594 110.078125 L 169.433594 113.253906 C 169.691406 113.285156 169.894531 113.300781 170.039063 113.300781 C 170.734375 113.300781 171.238281 113.167969 171.558594 112.898438 C 171.875 112.628906 172.035156 112.191406 172.035156 111.585938 C 172.035156 110.558594 171.320313 110.042969 169.894531 110.042969 C 169.734375 110.042969 169.578125 110.054688 169.433594 110.078125 Z M 174.519531 113.421875 C 174.519531 112.011719 174.851563 110.816406 175.519531 109.835938 C 176.1875 108.859375 177.078125 108.371094 178.195313 108.371094 C 179.421875 108.371094 180.363281 108.8125 181.011719 109.699219 C 181.660156 110.585938 181.988281 111.824219 181.988281 113.421875 C 181.988281 115.023438 181.648438 116.292969 180.96875 117.230469 C 180.289063 118.167969 179.324219 118.636719 178.078125 118.636719 C 176.929688 118.636719 176.050781 118.171875 175.4375 117.242188 C 174.824219 116.3125 174.519531 115.039063 174.519531 113.421875 Z M 176.09375 113.421875 C 176.09375 114.582031 176.261719 115.480469 176.601563 116.117188 C 176.941406 116.753906 177.433594 117.074219 178.078125 117.074219 C 178.835938 117.074219 179.414063 116.761719 179.8125 116.136719 C 180.210938 115.515625 180.410156 114.609375 180.410156 113.421875 C 180.410156 111.101563 179.671875 109.9375 178.195313 109.9375 C 177.519531 109.9375 176.996094 110.25 176.636719 110.878906 C 176.273438 111.511719 176.09375 112.355469 176.09375 113.421875 Z M 185.226563 118.46875 L 183.328125 118.46875 L 183.328125 108.554688 C 184.539063 108.503906 185.300781 108.480469 185.609375 108.480469 C 186.855469 108.480469 187.84375 108.902344 188.570313 109.75 C 189.300781 110.597656 189.664063 111.71875 189.664063 113.121094 C 189.664063 116.6875 188.1875 118.46875 185.226563 118.46875 Z M 184.847656 110.09375 L 184.847656 116.863281 C 185.089844 116.890625 185.355469 116.902344 185.640625 116.902344 C 186.40625 116.902344 187.007813 116.582031 187.4375 115.933594 C 187.871094 115.289063 188.089844 114.386719 188.089844 113.226563 C 188.089844 111.105469 187.238281 110.042969 185.542969 110.042969 C 185.378906 110.042969 185.148438 110.058594 184.847656 110.09375 Z M 192.523438 110.113281 L 192.523438 112.4375 L 195.347656 112.4375 L 195.347656 113.929688 L 192.523438 113.929688 L 192.523438 116.902344 L 196.394531 116.902344 L 196.394531 118.46875 L 191.007813 118.46875 L 191.007813 108.546875 L 196.460938 108.546875 L 196.460938 110.113281 Z M 202.621094 118.46875 L 200.339844 114.371094 C 200.113281 114.367188 199.792969 114.351563 199.378906 114.324219 L 199.378906 118.46875 L 197.800781 118.46875 L 197.800781 108.546875 C 197.886719 108.546875 198.214844 108.53125 198.789063 108.496094 C 199.363281 108.460938 199.820313 108.445313 200.171875 108.445313 C 202.34375 108.445313 203.429688 109.421875 203.429688 111.371094 C 203.429688 111.960938 203.277344 112.492188 202.976563 112.976563 C 202.679688 113.460938 202.300781 113.800781 201.847656 114 L 204.371094 118.46875 Z M 199.378906 110.078125 L 199.378906 112.832031 C 199.660156 112.859375 199.875 112.875 200.019531 112.875 C 200.652344 112.875 201.117188 112.769531 201.410156 112.5625 C 201.707031 112.355469 201.851563 111.953125 201.851563 111.351563 C 201.851563 110.863281 201.695313 110.523438 201.378906 110.332031 C 201.0625 110.136719 200.570313 110.039063 199.890625 110.039063 C 199.726563 110.039063 199.558594 110.050781 199.378906 110.078125 Z M 210.21875 114.820313 L 210.21875 118.46875 L 208.703125 118.46875 L 208.703125 108.554688 C 209.710938 108.503906 210.304688 108.480469 210.476563 108.480469 C 211.824219 108.480469 212.8125 108.722656 213.4375 109.203125 C 214.058594 109.683594 214.371094 110.433594 214.371094 111.453125 C 214.371094 113.726563 213.21875 114.863281 210.90625 114.863281 C 210.738281 114.863281 210.507813 114.851563 210.21875 114.820313 Z M 210.21875 110.078125 L 210.21875 113.253906 C 210.476563 113.285156 210.679688 113.300781 210.824219 113.300781 C 211.519531 113.300781 212.023438 113.167969 212.34375 112.898438 C 212.660156 112.628906 212.820313 112.191406 212.820313 111.585938 C 212.820313 110.558594 212.105469 110.042969 210.679688 110.042969 C 210.519531 110.042969 210.367188 110.054688 210.21875 110.078125 Z M 215.304688 113.421875 C 215.304688 112.011719 215.640625 110.816406 216.304688 109.835938 C 216.972656 108.859375 217.867188 108.371094 218.980469 108.371094 C 220.210938 108.371094 221.148438 108.8125 221.796875 109.699219 C 222.449219 110.585938 222.773438 111.824219 222.773438 113.421875 C 222.773438 115.023438 222.433594 116.292969 221.753906 117.230469 C 221.074219 118.167969 220.113281 118.636719 218.863281 118.636719 C 217.714844 118.636719 216.835938 118.171875 216.222656 117.242188 C 215.613281 116.3125 215.304688 115.039063 215.304688 113.421875 Z M 216.878906 113.421875 C 216.878906 114.582031 217.050781 115.480469 217.386719 116.117188 C 217.726563 116.753906 218.21875 117.074219 218.863281 117.074219 C 219.621094 117.074219 220.203125 116.761719 220.601563 116.136719 C 221 115.515625 221.199219 114.609375 221.199219 113.421875 C 221.199219 111.101563 220.457031 109.9375 218.980469 109.9375 C 218.304688 109.9375 217.785156 110.25 217.421875 110.878906 C 217.0625 111.511719 216.878906 112.355469 216.878906 113.421875 Z M 225.632813 114.820313 L 225.632813 118.46875 L 224.113281 118.46875 L 224.113281 108.554688 C 225.125 108.503906 225.71875 108.480469 225.890625 108.480469 C 227.238281 108.480469 228.226563 108.722656 228.851563 109.203125 C 229.472656 109.683594 229.785156 110.433594 229.785156 111.453125 C 229.785156 113.726563 228.632813 114.863281 226.320313 114.863281 C 226.148438 114.863281 225.921875 114.851563 225.632813 114.820313 Z M 225.632813 110.078125 L 225.632813 113.253906 C 225.890625 113.285156 226.09375 113.300781 226.238281 113.300781 C 226.933594 113.300781 227.4375 113.167969 227.757813 112.898438 C 228.074219 112.628906 228.234375 112.191406 228.234375 111.585938 C 228.234375 110.558594 227.519531 110.042969 226.09375 110.042969 C 225.933594 110.042969 225.78125 110.054688 225.632813 110.078125 Z M 231.125 108.546875 L 232.644531 108.546875 L 232.644531 115.273438 C 232.644531 115.804688 232.785156 116.238281 233.0625 116.574219 C 233.34375 116.90625 233.730469 117.074219 234.21875 117.074219 C 234.769531 117.074219 235.195313 116.910156 235.5 116.582031 C 235.804688 116.253906 235.957031 115.808594 235.957031 115.238281 L 235.957031 108.546875 L 237.476563 108.546875 L 237.476563 115.375 C 237.476563 116.394531 237.179688 117.191406 236.589844 117.769531 C 236 118.347656 235.214844 118.636719 234.230469 118.636719 C 233.238281 118.636719 232.476563 118.355469 231.933594 117.792969 C 231.398438 117.226563 231.125 116.417969 231.125 115.367188 Z M 239.222656 118.46875 L 239.222656 108.546875 L 240.742188 108.546875 L 240.742188 116.902344 L 244.605469 116.902344 L 244.605469 118.46875 Z M 250.816406 118.46875 L 250.191406 116.457031 L 247.261719 116.457031 L 246.667969 118.46875 L 244.984375 118.46875 L 248.390625 108.410156 L 249.054688 108.410156 L 252.488281 118.46875 Z M 248.722656 111.445313 L 247.695313 115.109375 L 249.75 115.109375 Z M 258.214844 118.46875 L 255.933594 114.371094 C 255.703125 114.367188 255.382813 114.351563 254.96875 114.324219 L 254.96875 118.46875 L 253.394531 118.46875 L 253.394531 108.546875 C 253.480469 108.546875 253.808594 108.53125 254.382813 108.496094 C 254.953125 108.460938 255.414063 108.445313 255.765625 108.445313 C 257.933594 108.445313 259.019531 109.421875 259.019531 111.371094 C 259.019531 111.960938 258.867188 112.492188 258.570313 112.976563 C 258.269531 113.460938 257.894531 113.800781 257.4375 114 L 259.964844 118.46875 Z M 254.96875 110.078125 L 254.96875 112.832031 C 255.25 112.859375 255.464844 112.875 255.613281 112.875 C 256.246094 112.875 256.710938 112.769531 257.003906 112.5625 C 257.296875 112.355469 257.445313 111.953125 257.445313 111.351563 C 257.445313 110.863281 257.289063 110.523438 256.972656 110.332031 C 256.65625 110.136719 256.160156 110.039063 255.484375 110.039063 C 255.320313 110.039063 255.148438 110.050781 254.96875 110.078125 Z M 266.191406 118.46875 L 264.292969 118.46875 L 264.292969 108.554688 C 265.503906 108.503906 266.265625 108.480469 266.574219 108.480469 C 267.820313 108.480469 268.808594 108.902344 269.535156 109.75 C 270.265625 110.597656 270.628906 111.71875 270.628906 113.121094 C 270.628906 116.6875 269.148438 118.46875 266.191406 118.46875 Z M 265.808594 110.09375 L 265.808594 116.863281 C 266.054688 116.890625 266.320313 116.902344 266.605469 116.902344 C 267.371094 116.902344 267.972656 116.582031 268.402344 115.933594 C 268.835938 115.289063 269.054688 114.386719 269.054688 113.226563 C 269.054688 111.105469 268.203125 110.042969 266.503906 110.042969 C 266.34375 110.042969 266.109375 110.058594 265.808594 110.09375 Z M 273.488281 110.113281 L 273.488281 112.4375 L 276.3125 112.4375 L 276.3125 113.929688 L 273.488281 113.929688 L 273.488281 116.902344 L 277.359375 116.902344 L 277.359375 118.46875 L 271.96875 118.46875 L 271.96875 108.546875 L 277.425781 108.546875 L 277.425781 110.113281 Z M 283.882813 110.113281 L 283.882813 112.4375 L 286.890625 112.4375 L 286.890625 113.929688 L 283.882813 113.929688 L 283.882813 118.46875 L 282.367188 118.46875 L 282.367188 108.546875 L 288 108.546875 L 288 110.113281 Z M 289.367188 108.546875 L 290.886719 108.546875 L 290.886719 118.46875 L 289.367188 118.46875 Z M 298.273438 118.605469 L 294.125 112.328125 L 294.125 118.476563 L 292.664063 118.476563 L 292.664063 108.546875 L 293.394531 108.546875 L 297.433594 114.535156 L 297.433594 108.546875 L 298.890625 108.546875 L 298.890625 118.605469 Z M 305.628906 118.46875 L 305.003906 116.457031 L 302.078125 116.457031 L 301.480469 118.46875 L 299.796875 118.46875 L 303.203125 108.410156 L 303.867188 108.410156 L 307.304688 118.46875 Z M 303.535156 111.445313 L 302.507813 115.109375 L 304.5625 115.109375 Z M 313.816406 118.605469 L 309.667969 112.328125 L 309.667969 118.476563 L 308.207031 118.476563 L 308.207031 108.546875 L 308.9375 108.546875 L 312.976563 114.535156 L 312.976563 108.546875 L 314.433594 108.546875 L 314.433594 118.605469 Z M 315.773438 118.46875 L 315.773438 117.898438 L 319.339844 110.113281 L 315.835938 110.113281 L 315.835938 108.546875 L 321.40625 108.546875 L 321.40625 109.117188 L 317.832031 116.902344 L 321.535156 116.902344 L 321.535156 118.46875 Z M 327.863281 118.46875 L 327.238281 116.457031 L 324.308594 116.457031 L 323.714844 118.46875 L 322.03125 118.46875 L 325.4375 108.410156 L 326.101563 108.410156 L 329.539063 118.46875 Z M 325.769531 111.445313 L 324.742188 115.109375 L 326.796875 115.109375 Z M 330.035156 117.921875 L 330.59375 116.34375 C 331.191406 116.828125 331.78125 117.074219 332.363281 117.074219 C 333.253906 117.074219 333.699219 116.710938 333.699219 115.992188 C 333.699219 115.652344 333.59375 115.328125 333.382813 115.023438 C 333.171875 114.714844 332.738281 114.371094 332.085938 113.988281 C 331.429688 113.609375 330.988281 113.292969 330.761719 113.046875 C 330.535156 112.800781 330.359375 112.507813 330.234375 112.167969 C 330.113281 111.832031 330.050781 111.457031 330.050781 111.046875 C 330.050781 110.277344 330.292969 109.644531 330.777344 109.136719 C 331.261719 108.632813 331.882813 108.378906 332.640625 108.378906 C 333.628906 108.378906 334.355469 108.59375 334.820313 109.023438 L 334.355469 110.539063 C 333.824219 110.097656 333.261719 109.875 332.671875 109.875 C 332.320313 109.875 332.050781 109.984375 331.855469 110.195313 C 331.664063 110.410156 331.570313 110.691406 331.570313 111.03125 C 331.570313 111.601563 332.109375 112.191406 333.195313 112.808594 C 333.765625 113.132813 334.179688 113.433594 334.433594 113.703125 C 334.683594 113.976563 334.878906 114.296875 335.011719 114.660156 C 335.144531 115.023438 335.210938 115.429688 335.210938 115.875 C 335.210938 116.679688 334.9375 117.339844 334.390625 117.859375 C 333.84375 118.378906 333.109375 118.636719 332.191406 118.636719 C 331.394531 118.636719 330.675781 118.398438 330.035156 117.921875 Z M 330.035156 117.921875 "/>
</g>
</g>
</svg>
