<svg xmlns="http://www.w3.org/2000/svg" viewBox="0 0 936 352" width="280" height="105">
	<defs>
		<linearGradient id="grd1" gradientUnits="userSpaceOnUse"  x1="888.826" y1="95.037" x2="858.142" y2="54.318">
			<stop offset="0" stop-color="#4aaf46"  />
			<stop offset="1" stop-color="#f9fdfa"  />
		</linearGradient>
		<linearGradient id="grd2" gradientUnits="userSpaceOnUse"  x1="895.375" y1="157.8" x2="867.141" y2="108.896">
			<stop offset="0" stop-color="#4aaf46"  />
			<stop offset="0.949" stop-color="#ffffff"  />
			<stop offset="1" stop-color="#ffffff"  />
		</linearGradient>
		<linearGradient id="grd3" gradientUnits="userSpaceOnUse"  x1="732.849" y1="159.986" x2="694.71" y2="112.889">
			<stop offset="0" stop-color="#4aaf46"  />
			<stop offset="1" stop-color="#eef8ef"  />
		</linearGradient>
		<linearGradient id="grd4" gradientUnits="userSpaceOnUse"  x1="719.141" y1="85.257" x2="693.167" y2="42.03">
			<stop offset="0" stop-color="#4aaf46"  />
			<stop offset="1" stop-color="#fcfefc"  />
		</linearGradient>
		<linearGradient id="grd5" gradientUnits="userSpaceOnUse"  x1="764.932" y1="85.005" x2="739.012" y2="41.867">
			<stop offset="0" stop-color="#4aaf46"  />
			<stop offset="1" stop-color="#eef8ef"  />
		</linearGradient>
		<linearGradient id="grd6" gradientUnits="userSpaceOnUse"  x1="858.413" y1="90.4" x2="825.541" y2="48.326">
			<stop offset="0" stop-color="#4aaf46"  />
			<stop offset="1" stop-color="#f5fbf6"  />
		</linearGradient>
	</defs>
	<style>
		tspan { white-space:pre }
		.shp0 { fill: url(#grd1) } 
		.shp1 { fill: url(#grd2) } 
		.shp2 { fill: url(#grd3) } 
		.shp3 { fill: url(#grd4) } 
		.shp4 { fill: url(#grd5) } 
		.shp5 { fill: url(#grd6) } 
		.shp6 { fill: #1a5caa } 
		.shp7 { fill: #133b62 } 
		.shp8 { fill: #49a942 } 
	</style>
	<g id="Layer 1">
		<g id="&lt;Group&gt;">
			<g id="&lt;Group&gt;">
				<path id="&lt;Path&gt;" class="shp0" d="M887.09 74.5C887.09 64.03 880.56 52.87 871.45 44.29C872.2 43.91 873.38 43.71 874.99 43.71C887.44 43.71 905.89 62.05 905.89 75.91C905.89 83.3 901.42 86.91 896.45 86.91C892.79 86.91 888.96 85.69 884.96 83.25C886.38 80.65 887.09 77.73 887.09 74.5Z" />
				<path id="&lt;Path&gt;" class="shp1" d="M884.3 99.28C884.96 98.84 887.09 97.68 890.32 97.68C904.29 97.68 918.37 116.15 918.37 132.63C918.37 139.7 915.01 150.57 905.34 150.57C901.3 150.57 897.46 149.42 893.83 147.12C896.22 142.28 897.28 136.77 897.1 132.05C897.1 120.42 891.96 108.23 884.3 99.28Z" />
				<path id="&lt;Path&gt;" class="shp2" d="M756.88 140.25C754.31 141.3 751.24 141.83 747.66 141.83C730.91 141.83 713.06 129.2 713.06 110.51C713.06 92.63 730.06 81.62 744.99 81.62C750.45 81.62 755.43 82.77 759.92 85.05C752.47 91.38 747 100.98 747 113.44C747 123.25 750.77 132.63 756.88 140.25Z" />
				<path id="&lt;Path&gt;" class="shp3" d="M742.18 68.38C727.96 68.38 708.65 60.03 708.65 42.8C708.65 29.59 723.36 21.73 737.13 21.73C741.44 21.73 745.61 22.46 749.63 23.92C742.9 28.06 737.83 34.57 737.83 44.03C737.83 53.34 741.32 61.24 748.29 67.74C746.05 68.17 744.01 68.38 742.18 68.38Z" />
				<path id="&lt;Path&gt;" class="shp4" d="M788.23 70.19C772.11 70.19 753.49 58.19 753.49 42.25C753.49 30.04 765.64 24.12 777.3 24.12C781.15 24.12 784.97 24.83 788.77 26.25C782.73 29.63 777.81 35.45 777.81 44.65C777.81 53.32 782.31 62.49 789.58 70.13C789.2 70.16 788.71 70.19 788.23 70.19Z" />
				<path id="&lt;Path&gt;" class="shp5" d="M854.48 65.2C854.48 55.63 848.66 45.25 839.76 37.1C841.94 36.05 844.37 35.52 847.04 35.52C862.79 35.52 880.28 53.8 880.28 66.68C880.28 74.1 874.72 79.88 866.58 79.88C861.69 79.88 856.77 78.41 851.81 75.46C853.5 72.57 854.48 69.15 854.48 65.2Z" />
			</g>
			<path id="&lt;Compound Path&gt;" fill-rule="evenodd" class="shp6" d="M924.89 201.47C924.89 221.14 913.82 238.77 898.5 238.77C884.26 238.77 874.97 227.58 869.77 215.68C864.25 229.87 851.55 241.47 834.96 241.47C817.11 241.47 803.91 230.84 796.91 218.04C788.03 234.64 770.4 245.07 752.48 245.07C723.41 245.07 703.8 219.04 703.8 196.45C703.8 180.66 712 164.4 725.95 154.84C705.94 147.29 695.93 133.57 695.93 113.66C695.93 97.42 703.41 85.61 718.36 78.24C701.27 72.15 692.73 61.55 692.73 46.43C692.73 24.11 718.07 15.64 732.5 15.64C741.57 15.64 749.51 17.34 756.33 20.73C761.37 18.9 766.71 18.08 771.22 18.08C783.45 18.08 793.96 23.28 794.81 23.71C798.16 22.7 801.46 22.26 804.2 22.26C813.82 22.26 823.32 25.56 831.57 30.69C833.82 29.92 836.47 29.53 839.54 29.53C847.42 29.53 856.07 32.85 863.8 38.14C864.43 37.96 865.54 37.78 867.38 37.78C886.64 37.78 911.22 60.46 911.22 83.98C911.22 91.39 908.86 96.15 904.14 98.26C908.32 100.92 923.58 118.89 923.58 138.74C923.58 150.02 919.47 160.21 911.5 163.86C920.1 173.61 924.89 188.79 924.89 201.47ZM747.66 141.83C751.24 141.83 754.31 141.3 756.88 140.25C750.77 132.63 747 123.25 747 113.44C747 100.98 752.47 91.38 759.92 85.05C755.43 82.77 750.45 81.62 744.99 81.62C730.06 81.62 713.06 92.63 713.06 110.51C713.06 129.2 730.91 141.83 747.66 141.83ZM742.18 68.38C744.01 68.38 746.05 68.17 748.29 67.74C741.32 61.24 737.83 53.34 737.83 44.03C737.83 34.57 742.9 28.06 749.63 23.92C745.61 22.46 741.44 21.73 737.13 21.73C723.36 21.73 708.65 29.59 708.65 42.8C708.65 60.03 727.96 68.38 742.18 68.38ZM753.49 42.25C753.49 58.19 772.11 70.19 788.23 70.19C788.71 70.19 789.2 70.16 789.58 70.13C782.31 62.49 777.81 53.32 777.81 44.65C777.81 35.45 782.73 29.63 788.77 26.25C784.97 24.83 781.15 24.12 777.3 24.12C765.64 24.12 753.49 30.04 753.49 42.25ZM839.76 37.1C848.66 45.25 854.48 55.63 854.48 65.2C854.48 69.15 853.5 72.57 851.81 75.46C856.77 78.41 861.69 79.88 866.58 79.88C874.72 79.88 880.28 74.1 880.28 66.68C880.28 53.8 862.79 35.52 847.04 35.52C844.37 35.52 841.94 36.05 839.76 37.1ZM887.09 74.5C887.09 77.73 886.38 80.65 884.96 83.25C888.96 85.69 892.79 86.91 896.45 86.91C901.42 86.91 905.89 83.3 905.89 75.91C905.89 62.05 887.44 43.71 874.99 43.71C873.38 43.71 872.2 43.91 871.45 44.29C880.56 52.87 887.09 64.03 887.09 74.5ZM890.32 97.68C887.09 97.68 884.96 98.84 884.3 99.28C891.96 108.23 897.1 120.42 897.1 132.05C897.28 136.77 896.22 142.28 893.83 147.12C897.46 149.42 901.3 150.57 905.34 150.57C915.01 150.57 918.37 139.7 918.37 132.63C918.37 116.15 904.29 97.68 890.32 97.68ZM793.77 43.96C793.77 57.64 810.65 73.87 829.02 73.87C837.23 73.87 847.2 68.74 847.2 58.3C847.2 44.53 829.94 28.36 812.16 28.36C805.45 28.36 793.77 32.13 793.77 43.96ZM791.57 191.5C791.57 174.17 776.17 158.06 757.54 158.06C736.3 158.06 722.59 176 722.59 193.14C722.59 208.97 736.25 227.22 756.51 227.22C774.24 227.22 791.57 212.49 791.57 191.5ZM829.19 115.19C829.19 96.14 810.73 82.27 794.03 82.27C782.18 82.27 766.96 91.92 766.96 109.09C766.96 126.2 783.75 141.49 801.92 141.49C811.05 141.49 829.19 134.56 829.19 115.19ZM865.86 193.43C865.86 176.23 852.75 159.05 835.73 159.05C818.91 159.05 807.01 172.67 807.01 191.26C807.01 211.96 822.97 224.42 837.55 224.42C853.62 224.42 865.86 208.49 865.86 193.43ZM873.61 146.41C885.89 146.41 891.6 134.34 891.23 125.76C891.23 109.11 876 90.94 860.19 90.94C850.88 90.94 841.84 98.83 841.84 111.5C841.84 124.16 853.23 146.41 873.61 146.41ZM920.64 197.06C920.64 182.74 911.89 163.83 897.25 163.83C886.34 163.83 878.59 174.97 878.59 191.59C878.59 200.92 885.52 223.09 902.26 223.09C912.93 223.09 920.64 210.8 920.64 197.06Z" />
			<path id="&lt;Compound Path&gt;" class="shp7" d="M835.73 159.05C831.21 159.05 826.97 160.02 823.4 161.82C826.11 160.45 829.96 160.17 833.21 160.17C850.26 160.17 863.37 177.34 863.37 194.54C863.37 205.9 856.38 219.03 845.99 222.89C857.71 218.58 865.86 205.71 865.86 193.43C865.86 176.23 852.75 159.05 835.73 159.05ZM757.54 158.06C751.83 158.06 746.68 159.36 742.18 161.59C745.8 159.79 750.36 159.18 755.03 159.18C773.64 159.18 789.06 175.3 789.06 192.62C789.06 207.46 780.6 220.09 769.03 224.76C781.58 219.74 791.57 207.42 791.57 191.5C791.57 174.17 776.17 158.06 757.54 158.06ZM757.41 86.18C749.94 92.5 744.48 102.1 744.48 114.56C744.48 124.24 748.16 133.49 754.14 141.07C755.3 140.8 756.21 140.53 756.88 140.25C750.77 132.63 746.99 123.25 746.99 113.44C746.99 100.98 752.47 91.38 759.92 85.05C755.43 82.77 750.45 81.62 744.99 81.62C741.15 81.62 737.14 82.37 733.35 83.75C732.18 84.17 731.04 84.68 729.9 85.23C733.74 83.32 738.32 82.74 742.5 82.74C747.94 82.74 752.91 83.89 757.41 86.18ZM794.03 82.27C790.17 82.27 785.95 83.3 782.04 85.26C784.98 83.8 788.46 83.38 791.52 83.38C808.22 83.38 826.68 97.27 826.68 116.31C826.68 128.39 819.91 136.29 812.1 139.36C820.48 136.05 829.19 128.61 829.19 115.19C829.19 96.15 810.73 82.27 794.03 82.27ZM891.23 125.76C891.23 109.11 876 90.94 860.19 90.94C857.36 90.94 854.54 91.66 852 93.04C853.83 92.04 855.74 92.05 857.69 92.05C873.48 92.05 888.71 110.23 888.71 126.88C889.01 133.33 886.43 143.02 879.04 145.53C887.58 142.6 891.54 132.95 891.23 125.76ZM897.25 163.83C894.6 163.83 892.14 164.49 889.95 165.73C892.14 164.49 896.54 165.05 896.75 165.07C910.2 166.72 918.15 184.53 918.15 198.18C918.15 208.75 913.06 220.22 906.59 222.39C914.95 219.59 920.64 208.86 920.64 197.06C920.64 182.74 911.89 163.83 897.25 163.83ZM844.71 59.41C844.71 65.7 841.35 70.72 836.39 72.54C842.23 70.4 847.2 65.67 847.2 58.3C847.2 44.53 829.94 28.36 812.16 28.36C809.21 28.36 805.29 29.09 801.82 30.92C804.29 29.63 807.39 29.48 809.66 29.48C827.42 29.48 844.71 45.64 844.71 59.41ZM884.3 99.28C885.24 99.01 886.44 98.79 887.82 98.79C902.85 98.79 916.13 117.29 916.13 133.74C916.13 139.18 913.2 148.73 908.57 150.13C915.78 148.01 918.37 138.85 918.37 132.63C918.37 116.15 904.29 97.68 890.32 97.68C887.09 97.68 884.96 98.84 884.3 99.28ZM872.48 44.83C886.86 44.83 904.2 63.17 904.2 77.02C904.2 81.72 902.61 85.6 898.99 86.57C902.85 85.53 905.89 82.01 905.89 75.91C905.89 62.05 887.44 43.71 874.99 43.71C873.38 43.71 872.2 43.91 871.45 44.29L871.99 44.84L872.48 44.83ZM747.13 25.05C740.39 29.18 735.34 35.69 735.34 45.16C735.34 57 742.86 65.81 745.14 68.2C746.31 68.08 747.36 67.92 748.29 67.74C741.32 61.24 737.83 53.34 737.83 44.03C737.83 34.57 742.9 28.06 749.63 23.92C745.61 22.46 741.44 21.73 737.13 21.73C731.57 21.73 725.84 23.02 721.01 25.42C725.05 23.41 729.98 22.85 734.63 22.85C738.93 22.85 743.1 23.58 747.13 25.05ZM786.26 27.38C780.21 30.76 775.29 36.56 775.29 45.76C775.29 54.01 779.39 62.72 786.03 70.11C786.79 70.17 787.5 70.19 788.23 70.19C788.71 70.19 789.2 70.17 789.58 70.13C782.31 62.49 777.81 53.32 777.81 44.65C777.81 35.45 782.73 29.63 788.77 26.25C784.97 24.83 781.15 24.12 777.3 24.12C772.41 24.12 767.4 25.17 763.27 27.28C766.68 25.53 770.87 25.23 774.81 25.23C778.64 25.23 782.45 25.95 786.26 27.38ZM844.52 36.62C860.27 36.62 877.75 54.91 877.75 67.79C877.75 72.67 875.65 77.75 871.41 79.13C876.84 77.35 880.28 72.52 880.28 66.68C880.28 53.8 862.79 35.52 847.04 35.52C844.37 35.52 841.94 36.05 839.76 37.1C841.19 36.93 842.8 36.62 844.52 36.62Z" />
			<path id="&lt;Compound Path&gt;" class="shp7" d="M703.8 196.45C703.8 180.66 712 164.4 725.99 154.85C725.95 154.84 695.93 143.52 695.93 113.66C695.93 96.68 706.82 86.17 713.41 81.36C707.82 84.84 693.12 95.82 693.12 115.54C693.12 135.45 703.14 149.18 723.16 156.73C709.34 166.34 701 182.54 701 198.35C701 220.92 720.63 246.95 749.69 246.95C760.41 246.95 771.4 244.79 784.84 232.93C774.34 241.85 761.77 245.07 752.48 245.07C723.41 245.07 703.8 219.04 703.8 196.45ZM796.91 218.04C796.29 219.18 795.63 220.29 794.92 221.37C802.12 233.51 815 243.35 832.17 243.35C840.09 243.35 848.84 241.96 859.96 230.86C851.35 239.45 841.64 241.47 834.96 241.47C817.11 241.47 803.91 230.84 796.91 218.04ZM869.77 215.68C869.25 217.07 868.62 218.42 867.95 219.72C873.32 230.79 882.34 240.65 895.71 240.65C900.47 240.65 906.91 238.82 913.36 232.37C908.24 237.49 902.09 238.77 898.5 238.77C884.26 238.77 874.97 227.58 869.77 215.68ZM715.32 80.04C716.54 79.23 717.55 78.64 718.36 78.24C701.27 72.15 692.73 61.55 692.73 46.43C692.73 41.58 693.92 37.38 695.93 33.78C692.13 40.57 691.79 43.76 691.79 49.18C691.79 69.22 713.17 79.21 715.32 80.04Z" />
			<path id="&lt;Compound Path&gt;" fill-rule="evenodd" class="shp6" d="M562.34 219.86L547.79 219.86C546.72 219.86 545.8 219.08 545.8 217.94C545.8 216.81 546.72 215.9 547.79 215.88L561.32 215.88L561.32 213.01L542.05 213.01L542.05 223.41L565.96 223.41L565.96 227.58L540.8 227.58C538.85 227.58 537.21 226.11 537.21 223.9L537.21 212.51C537.21 210.42 538.82 208.8 540.8 208.8L562.37 208.8C564.34 208.8 565.96 210.43 565.96 212.52L565.96 215.96C565.96 218.04 564.33 219.86 562.34 219.86ZM18.17 223.38L42.12 223.38L42.12 227.54L16.91 227.54C14.92 227.54 13.3 225.85 13.3 223.78L13.34 204.32C13.34 202.11 15.04 200.54 16.94 200.54L40.15 200.54C41.22 200.54 42.13 201.57 42.13 202.68C42.13 203.81 41.16 204.73 40.13 204.73L18.2 204.73L18.17 223.38ZM329.04 200.61L333.69 200.61L333.69 224.03C333.69 225.75 332.1 227.54 330.13 227.54L308.44 227.54C306.59 227.54 304.87 225.95 304.87 223.85L304.87 212.47C304.87 210.31 306.63 208.77 308.44 208.77L329.04 208.77L329.04 200.61ZM328.8 223.39L328.8 212.99L309.76 212.99L309.76 223.39L328.8 223.39ZM355.5 223.39L379.53 223.39L379.53 227.56L354.31 227.56C352.33 227.56 350.71 225.85 350.71 223.78L350.71 212.56C350.71 210.34 352.41 208.77 354.31 208.77L377.52 208.77C378.6 208.77 379.48 209.83 379.48 210.95C379.48 212.07 378.52 212.98 377.51 212.98L355.5 212.98L355.5 223.39ZM507.25 223.39L531.28 223.39L531.28 227.56L506.02 227.56C504.05 227.56 502.44 225.85 502.44 223.78L502.44 212.56C502.44 210.34 504.14 208.77 506.04 208.77L529.25 208.77C530.32 208.77 531.23 209.83 531.23 210.95C531.23 212.07 530.25 212.98 529.23 212.98L507.25 212.98L507.25 223.39ZM344.74 208.77L344.74 225.03C344.74 226.3 343.63 227.56 342.24 227.56C340.86 227.56 339.64 226.36 339.64 225.03L339.64 208.77L344.74 208.77ZM339.64 204.82L339.64 202.52C339.64 201.13 340.86 200 342.24 200C343.62 200 344.74 201.13 344.74 202.52L344.74 204.82L339.64 204.82ZM458.15 200.61C460.15 200.61 461.73 202.32 461.73 204.31L461.73 223.88C461.73 225.87 460.05 227.56 458.17 227.56L443.51 227.56C442.43 227.56 441.52 226.62 441.52 225.5C441.52 224.36 442.44 223.37 443.51 223.37L456.9 223.37L456.9 204.82L437.8 204.82L437.8 227.63L432.92 227.63L432.92 200.61L458.15 200.61ZM212.23 212.46L212.23 223.89C212.23 225.77 210.64 227.54 208.65 227.54L187 227.56C185.18 227.56 183.42 226 183.4 223.89L183.4 212.46C183.4 210.36 185.12 208.78 186.97 208.78L208.65 208.78C210.42 208.78 212.23 210.33 212.23 212.46ZM207.33 223.39L207.33 212.99L188.29 212.99L188.29 223.39L207.33 223.39ZM414.28 212.45L414.28 223.89C414.28 225.77 412.68 227.54 410.71 227.54L389.04 227.56C387.24 227.56 385.47 226 385.46 223.89L385.46 212.45C385.46 210.34 387.15 208.77 389.03 208.77L410.71 208.77C412.48 208.77 414.28 210.31 414.28 212.45ZM409.39 223.39L409.39 212.99L390.34 212.99L390.34 223.39L409.39 223.39ZM496.52 212.45L496.52 223.89C496.52 225.77 494.92 227.54 492.94 227.54L471.27 227.56C469.47 227.56 467.7 226 467.69 223.89L467.69 212.45C467.69 210.34 469.38 208.77 471.26 208.77L492.94 208.77C494.71 208.77 496.52 210.31 496.52 212.45ZM491.62 223.39L491.62 212.99L472.57 212.99L472.57 223.39L491.62 223.39ZM73.2 219.84L58.66 219.84C57.58 219.83 56.65 219.05 56.65 217.92C56.65 216.79 57.59 215.87 58.66 215.87L72.18 215.87L72.18 212.98L52.92 212.98L52.92 223.39L76.82 223.39L76.82 227.56L51.64 227.54C49.72 227.54 48.06 226.08 48.06 223.88L48.06 212.49C48.06 210.41 49.67 208.77 51.67 208.77L73.24 208.77C75.23 208.78 76.82 210.42 76.82 212.49L76.82 215.94C76.82 218.02 75.19 219.83 73.2 219.84ZM663.42 219.84L648.88 219.84C647.79 219.83 646.86 218.83 646.86 217.7C646.86 216.56 647.81 215.65 648.88 215.65L662.4 215.65L662.4 212.95L643.14 212.95L643.14 223.38L667.04 223.38L667.04 227.56L641.88 227.54C639.94 227.54 638.28 226.08 638.28 223.88L638.28 212.49C638.28 210.41 639.9 208.77 641.88 208.77L663.45 208.77C665.43 208.78 667.04 210.42 667.04 212.49L667.04 215.94C667.04 218.02 665.4 219.83 663.42 219.84ZM108.01 208.78C109.99 208.8 111.59 210.46 111.59 212.42L111.59 227.56L106.71 227.56L106.71 212.97L87.62 212.97L87.62 225.11C87.62 226.33 86.57 227.56 85.22 227.56C83.86 227.56 82.76 226.36 82.76 225.09L82.77 212.44C82.77 210.42 84.44 208.78 86.36 208.78L108.01 208.78ZM146.35 210.82C146.35 211.98 145.38 212.97 144.37 212.97L129.11 212.98L129.11 225.09C129.11 226.29 128.03 227.56 126.65 227.56C125.3 227.56 124.26 226.31 124.26 225.08L124.26 212.98L117.53 212.98L117.53 208.77L124.24 208.77L124.24 200.61L129.11 200.61L129.11 208.77L144.37 208.77C145.43 208.77 146.35 209.65 146.35 210.82ZM597.16 208.78C599.16 208.8 600.75 210.46 600.75 212.42L600.75 227.56L595.88 227.56L595.88 212.97L576.8 212.97L576.8 225.11C576.8 226.33 575.73 227.56 574.37 227.56C573.02 227.56 571.91 226.36 571.91 225.09L571.93 212.44C571.93 210.42 573.59 208.78 575.54 208.78L597.16 208.78ZM634.46 210.82C634.46 211.98 633.5 212.97 632.47 212.97L617.24 212.98L617.24 225.09C617.24 226.29 616.13 227.56 614.77 227.56C613.41 227.56 612.37 226.31 612.37 225.08L612.37 212.98L605.64 212.98L605.64 208.77L612.34 208.77L612.34 200.61L617.24 200.61L617.24 208.77L632.47 208.77C633.54 208.77 634.46 209.65 634.46 210.82ZM175.16 208.77C176.97 208.77 178.76 210.33 178.76 212.46L178.76 217L173.85 217L173.85 212.95L154.81 212.95L154.81 225.09C154.81 226.27 153.78 227.56 152.41 227.56C151.07 227.56 149.95 226.36 149.95 225.09L149.95 212.46C149.95 210.48 151.57 208.78 153.56 208.78L175.16 208.77ZM295.28 219.84L280.73 219.84C279.66 219.83 278.73 219.05 278.73 217.92C278.73 216.79 279.66 215.87 280.73 215.87L294.26 215.87L294.26 212.98L274.99 212.98L274.99 223.39L298.89 223.39L298.89 227.56L273.73 227.54C271.8 227.54 270.16 226.08 270.16 223.88L270.16 212.49C270.16 210.41 271.75 208.77 273.76 208.77L295.31 208.77C297.29 208.78 298.89 210.42 298.89 212.49L298.89 215.94C298.89 218.02 297.26 219.83 295.28 219.84ZM291.79 204.7L283.09 206.8C282 207.05 280.84 206.38 280.58 205.25C280.3 204.13 281.01 202.99 282.11 202.73L290.79 200.63L291.79 204.7ZM264.16 200.61L264.16 224.96C264.16 226.4 263.06 227.56 261.72 227.56C260.32 227.56 259.3 226.41 259.3 224.96L259.3 204.8L249.65 218.65C249.54 218.83 249.42 219.01 249.26 219.15C249.13 219.27 248.98 219.38 248.83 219.48C248.6 219.6 248.45 219.66 248.28 219.71C248.03 219.79 247.84 219.8 247.63 219.8C247.36 219.8 247.23 219.79 247.05 219.72C246.82 219.66 246.68 219.6 246.53 219.51C246.29 219.38 246.13 219.26 246.01 219.14C245.85 218.99 245.72 218.83 245.61 218.65L235.86 204.8L235.86 224.96C235.86 226.59 234.63 227.56 233.43 227.56C232.03 227.56 230.98 226.39 230.98 224.96L230.98 200.61L238.77 200.61L247.57 213.01L256.38 200.61L264.16 200.61Z" />
			<path id="&lt;Compound Path&gt;" fill-rule="evenodd" class="shp8" d="M572.23 268.5L572.23 262.65C572.23 259.07 575.33 256.19 578.91 256.19C582.45 256.19 585.35 259.07 585.35 262.65L585.35 268.5L572.23 268.5ZM658.21 257.76L670.03 257.76L670.03 317.91C670.03 322.02 666.04 327 661.04 327C623.9 327 605.33 327 605.31 326.99C600.59 326.99 596.14 322.86 596.14 317.5L596.14 288.2C596.14 282.7 600.65 278.71 605.31 278.71L658.21 278.7L658.21 257.76ZM657.63 316.27L657.63 289.57L608.73 289.57L608.73 316.27L657.63 316.27ZM827.69 257.76L839.5 257.76L839.5 317.91C839.5 322.02 835.53 327 830.52 327C793.38 327 774.8 327 774.79 326.99C770.07 326.99 765.62 322.86 765.62 317.5L765.62 288.2C765.62 282.7 770.13 278.71 774.79 278.71L827.69 278.7L827.69 257.76ZM827.12 316.27L827.12 289.57L778.2 289.57L778.2 316.27L827.12 316.27ZM585.35 278.7L585.35 320.55C585.35 323.78 582.51 327 578.91 327C575.33 327 572.25 323.92 572.25 320.55L572.25 278.7L585.35 278.7ZM476.7 278.7L476.7 320.55C476.7 323.78 473.86 327 470.25 327C466.68 327 463.57 323.92 463.57 320.55L463.57 278.7L476.7 278.7ZM552.19 278.75C557.28 278.79 561.39 283.06 561.39 288.09L561.39 327L548.86 327L548.86 289.48L500 289.48L500 320.71C500 323.84 497.28 327 493.81 327C490.32 327 487.49 323.87 487.49 320.63L487.51 288.14C487.51 282.95 491.79 278.75 496.75 278.75L552.19 278.75ZM443.55 278.73C448.2 278.73 452.75 282.73 452.75 288.19L452.75 298.05L440.24 298.05L440.24 289.46L397.52 289.46L397.52 320.65C397.52 323.68 394.8 327 391.33 327C387.86 327 385 323.9 385 320.65L385 288.19C385 283.14 389.19 278.75 394.28 278.75L443.55 278.73ZM284.08 288.17L284.08 317.56C284.08 322.92 279.46 327 274.92 327L219.22 327C214.41 327 209.99 322.92 209.99 317.56L209.99 307.99C209.99 302.09 214.34 298.05 219.22 298.05L261.72 298.05L261.72 308.88L222.35 308.88L222.35 316.24L272.05 316.24L272.05 289.5L215.13 289.5C212.4 289.5 209.99 287.15 209.99 284.23C209.99 281.32 212.37 278.73 215.13 278.73C254.97 278.71 274.9 278.71 274.92 278.73C279.98 278.73 284.08 283.13 284.08 288.17ZM754.94 288.17L754.94 317.56C754.94 322.92 750.29 327 745.77 327L690.06 327C685.23 327 680.84 322.92 680.84 317.56L680.84 307.99C680.84 302.09 685.17 298.05 690.06 298.05L732.59 298.05L732.59 308.88L693.2 308.88L693.2 316.24L742.9 316.24L742.9 289.5L685.98 289.5C683.23 289.5 680.84 287.15 680.84 284.23C680.84 281.32 683.19 278.73 685.98 278.73C725.82 278.71 745.74 278.71 745.77 278.73C750.84 278.73 754.94 283.13 754.94 288.17ZM192.64 316.2C195.54 316.2 197.9 318.6 197.9 321.54C197.9 324.45 195.39 326.91 192.64 326.91L141.84 326.91C136.91 326.91 132.37 322.78 132.37 317.31L132.37 257.71L144.89 257.71L144.89 316.2L192.64 316.2ZM384.95 263.15C384.95 266.18 382.33 268.5 379.55 268.5L355.53 268.5L355.54 320.58C355.54 323.43 352.96 327 349.04 327C345.09 327 342.55 323.53 342.55 320.58L342.55 268.5L313.55 268.5L313.55 257.81L379.55 257.81C382.4 257.81 384.95 260.14 384.95 263.15ZM463.57 268.5L463.57 262.65C463.57 259.07 466.68 256.19 470.25 256.19C473.81 256.19 476.7 259.07 476.7 262.65L476.7 268.5L463.57 268.5Z" />
		</g>
	</g>
</svg>